<svg xmlns="http://www.w3.org/2000/svg" xmlns:xlink="http://www.w3.org/1999/xlink" width="137.633" height="148.085" viewBox="0 0 137.633 148.085">
  <defs>
    <clipPath id="clip-path">
      <rect id="Rectangle_32" data-name="Rectangle 32" width="115.239" height="128.457" fill="none"/>
    </clipPath>
  </defs>
  <g id="Groupe_28" data-name="Groupe 28" transform="translate(-158.259 53.044) rotate(-7)">
    <g id="Groupe_27" data-name="Groupe 27" transform="matrix(0.951, 0.309, -0.309, 0.951, 187.872, -30.374)" clip-path="url(#clip-path)">
      <path id="Tracé_19" data-name="Tracé 19" d="M22.1,24.716c-5.07-1.827-9.445-3.447-13.861-4.97a23.958,23.958,0,0,0-5.2-1.324A3.63,3.63,0,0,0,.238,19.466a2.926,2.926,0,0,0,.248,2.708,10.355,10.355,0,0,0,2.59,2.363c3.163,2.442,6.312,4.9,9.565,7.25,2.078,1.5,2.272,3.078,1.23,5.2-2.006,4.083-3.787,8.253-5.621,12.4-.507,1.148-.849,2.351-1.3,3.518-.627,1.608-1.02,3.215.984,4.279,2.09,1.112,3.431-.31,4.729-1.383,2.353-1.946,4.6-3.989,6.905-5.986,2.09-1.817,4.188-3.624,6.664-5.767.664,1.523,1.225,2.838,1.807,4.147,2.51,5.637,4.987,11.286,7.566,16.9a10.251,10.251,0,0,0,2.191,3.134C39.6,69.94,42,69.375,42.464,67.064a14.627,14.627,0,0,0-.1-4.79c-.956-6.986-2.006-13.962-3-20.944-.03-.211.179-.45.467-1.117,4.117,0,8.427,0,12.738,0a21.7,21.7,0,0,0,4.6-.115,4.426,4.426,0,0,0,2.761-1.891c.295-.61-.617-1.741-1.141-2.564a3.406,3.406,0,0,0-1.308-.907C51.447,31.627,45.6,28.09,38.215,27.952c-.241,0-.475-.222-1.042-.5-.378-3.721-.811-7.632-1.16-11.548-.374-4.193-.624-8.395-1.02-12.585C34.869,2,34.856.251,32.98.022,31.053-.213,30.588,1.5,30.12,2.756c-.747,1.994-1.192,4.074-1.935,6.069C26.269,13.975,24.26,19.1,22.1,24.716m-8.161,2.025c2.633.8,5.252,1.645,7.9,2.394,2.757.779,3.367.514,4.517-1.8.334-.675.536-1.4.829-2.091q1.514-3.556,3.049-7.1l.784.06c.5,3.949.994,7.9,1.476,11.718,5.329,2.579,11.484,2.309,16.837,5.816-4.212,0-7.685-.037-11.157.01-4.473.061-5.321,1.2-4.547,5.015.907,4.468,1.483,8.987,2.2,13.484.18.25.359.5.1.14.111.418.032.119-.047-.179-.784-1.412-1.655-2.79-2.333-4.239-1.279-2.734-2.334-5.551-3.689-8.252-1.5-2.981-3.836-3.437-6.617-1.37-1.385,1.029-2.611,2.228-3.881,3.374A29.013,29.013,0,0,1,14.415,47.6c1.547-4.358,3.238-8.533,5.093-12.65.731-1.623.426-2.744-1.015-3.923-1.623-1.327-3.012-2.878-4.5-4.331l-.248-.271.2.316" transform="translate(55.249 39.903)" fill="#f26d10"/>
      <path id="Tracé_20" data-name="Tracé 20" d="M25.84,28.549c3.256.515,5.84.971,8.44,1.319a21.919,21.919,0,0,0,4.574.3c2.309-.179,3.222-2.216,1.751-3.807a9.029,9.029,0,0,0-2.589-1.855c-3.651-1.8-7.355-3.523-11.67-5.573,0-1.727.005-3.922,0-6.115-.007-2.475.039-4.951-.064-7.421a9.241,9.241,0,0,0-.669-3.62A3.779,3.779,0,0,0,23.272.011c-.57-.119-1.8.743-2.112,1.4-1.47,3.067-2.757,6.2-4.042,9.336-.565,1.38-.966,2.813-1.552,4.547-2.938-.908-5.646-1.769-8.375-2.579a30.8,30.8,0,0,0-4.421-1.13c-2.124-.3-3.4,1-2.457,2.658a11.627,11.627,0,0,0,3.248,3.274c2.22,1.65,4.606,3.124,7.133,4.811-2.936,3.012-5.577,5.692-8.172,8.407A5.94,5.94,0,0,0,.947,32.879,2.644,2.644,0,0,0,1.365,35.2a3.241,3.241,0,0,0,2.54.691,15.363,15.363,0,0,0,3.659-1.756A67.69,67.69,0,0,1,15.9,29.895c1.025,3.733,1.938,7.061,2.85,10.389.2.719.378,1.443.581,2.16.366,1.294,1.126,2.446,2.742,2.406,1.874-.048,2.5-1.437,2.69-2.848.337-2.573.575-5.159.79-7.744.143-1.7.179-3.413.29-5.709m-11.252-3.6c-.064.068-.128.138-.19.207l.243-.164a4.186,4.186,0,0,0,1.687-4.494l-.233-.208c.061.085.123.168.185.253,2.705-.133,3.47-2.162,4.729-3.831.974,2.72-1.3,7.022,4.7,7.175-1.3.234-2.825-.012-3.635.549-1.824,1.26-3.526.853-5.4.456a8.854,8.854,0,0,0-2.083.057" transform="translate(5.754 0)" fill="#f26d10"/>
      <path id="Tracé_21" data-name="Tracé 21" d="M12.338,20.007c-3.457-.144-6.391-.371-9.32-.331A3.9,3.9,0,0,0,.275,20.842c-.772,1.112.216,2.143,1.276,2.81,1.48.932,3.042,1.766,4.61,2.58,2.493,1.3,3.315,2.938,2.444,5.557a73.351,73.351,0,0,0-1.984,9.09A4.877,4.877,0,0,0,6.6,43.052c.445,1.635,1.871,2.25,3.5,1.386a12.917,12.917,0,0,0,3.071-2.464c1.795-1.846,3.469-3.785,5.59-6.124,1.515,3.294,2.784,6.118,4.121,8.916a8.5,8.5,0,0,0,1.61,2.571c1.578,1.5,4.227.889,4.377-1.136a41.018,41.018,0,0,0-.325-8.859,92.6,92.6,0,0,0-2.248-9.063c2.737-.085,5.21-.127,7.677-.252a19.489,19.489,0,0,0,4.139-.463c1.947-.539,2.417-2.23.947-3.475a9.629,9.629,0,0,0-3.528-1.928c-3.855-1.065-7.783-1.919-12.246-2.991-.29-1.925-.715-4.325-1-6.738-.364-3.073-.613-6.157-.917-9.236a5.38,5.38,0,0,0-.158-1.1C20.847.958,20.18-.225,18.736.037a3.2,3.2,0,0,0-2.088,1.97c-.642,2.647-.868,5.372-1.389,8.045s-1.166,5.335-1.847,7.984a9.326,9.326,0,0,1-1.074,1.971m1.271,5.77c3.5.488,3.221-2.479,4.729-4.266.726,2.7,2.343,3.417,5.017,2.426.587-.219,1.5.243,2.862.509-2.626.847-5.087.9-5.892,3.2.893,1.6,1.78,3.18,2.665,4.765a2.373,2.373,0,0,1-1.581-1.233c-2-2.971-3.512-2.985-5.746-.045-.774,1.02-1.515,2.059-2.4,3.267-1.278-2.622,1.421-3.568,1.975-5.268-.533-1.148-1.053-2.275-1.576-3.4-.083-.08-.163-.162-.246-.244l.194.292" transform="translate(0.001 80.285)" fill="#f26d10"/>
    </g>
  </g>
</svg>
