<svg xmlns="http://www.w3.org/2000/svg" xmlns:xlink="http://www.w3.org/1999/xlink" width="168.767" height="141.836" viewBox="0 0 168.767 141.836">
  <defs>
    <clipPath id="clip-path">
      <rect id="Rectangle_21" data-name="Rectangle 21" width="162" height="133.541" fill="none"/>
    </clipPath>
  </defs>
  <g id="Groupe_19" data-name="Groupe 19" transform="translate(6.989 0) rotate(3)">
    <g id="Groupe_18" data-name="Groupe 18" transform="translate(0 -0.001)" clip-path="url(#clip-path)">
      <path id="Tracé_13" data-name="Tracé 13" d="M124.06,108.1c-1.213,6.812-5.022,11.965-8.885,17.052a23.714,23.714,0,0,1-11.356,7.961c-.989.348-1.966.828-2.88-.144-1.046-1.11-.412-2.173.1-3.226a52.562,52.562,0,0,0,2.542-5.228c1.251-3.509.52-6.941-1.007-10.207a5.134,5.134,0,0,0-4.942-3.209c-.651,0-1.3-.034-1.954-.028a84.623,84.623,0,0,1-14.783-.816c-5.244-.872-10.608-1-15.9-1.645a86.3,86.3,0,0,1-26.192-7.363c-5.422-2.53-11-4.733-16.381-7.348A41.644,41.644,0,0,1,9.782,84.869,18.3,18.3,0,0,1,5.2,77.26C3.7,71.744,1.863,66.294.8,60.694A42.817,42.817,0,0,1,3.051,36.556c3.273-8.3,7.648-15.808,15.284-20.682A114.688,114.688,0,0,1,35.2,6.924,91.959,91.959,0,0,1,65.931.114,132.221,132.221,0,0,1,83.866.748c6.6.521,13.224,1.133,19.745,2.248,12.463,2.129,23.81,7.4,34.87,13.293a20.751,20.751,0,0,1,4.926,3.81c7.164,7.3,13.563,15.138,16.574,25.176a48.071,48.071,0,0,1,1.755,18.9,61.129,61.129,0,0,1-2.519,12.975C156.77,84.622,151.96,90.29,145.965,95.1c-2.029,1.628-4.22,3.054-6.235,4.7a49.7,49.7,0,0,1-15.67,8.3m-3.5-3.245c4.572-2.14,8.315-3.647,11.81-5.6,3.4-1.9,6.53-4.287,9.819-6.4a28.712,28.712,0,0,0,8.306-8.165c7.11-10.514,8.52-22.205,6.3-34.374-1.536-8.406-6.041-15.407-11.676-21.753-4.291-4.831-8.986-9-15.083-11.444-3.14-1.255-6.153-2.827-9.278-4.131A90.351,90.351,0,0,0,95.2,6.225c-4.784-.5-9.569-1.121-14.368-1.279-7.028-.229-14.138-.722-21.091.027a85.171,85.171,0,0,0-36.21,12.505C11.494,24.947,6.352,36.235,5.015,49.67c-.939,9.445,2.057,18.28,5.156,27a16.043,16.043,0,0,0,3.173,4.843,36.383,36.383,0,0,0,12.292,8.836c5.533,2.6,11.264,4.776,16.824,7.323,9,4.12,18.491,6.091,28.277,7,3.877.36,7.731.977,11.6,1.471,2.309.3,4.611.712,6.93.833,2.6.135,5.211-.014,7.817-.02a11.429,11.429,0,0,1,11.012,8.194,25.053,25.053,0,0,1,.571,10.766c6.859-6.092,10.927-13.106,11.9-21.069" transform="translate(0 0.001)" fill="#f26d10"/>
      <path id="Tracé_14" data-name="Tracé 14" d="M59.815,32.3c2.22-1.46,4.143-2.835,6.178-4.023a14.269,14.269,0,0,1,3.741-1.507,6.666,6.666,0,0,1,7.271,2.468,6.846,6.846,0,0,1,.687,7.207A38.457,38.457,0,0,1,68.624,48.56Q58.357,58.4,48.109,68.251c-1.274,1.23-2.553,2.486-4.4,1.485-1.763-.953-1.77-2.786-1.484-4.494.446-2.667,1.2-5.289,1.542-7.967.881-6.95.077-13.829-1.091-20.693a58.338,58.338,0,0,1-.765-8.071,16.971,16.971,0,0,1,.637-4.989c1.249-4.474,3.829-6.808,7.153-6.754a9.289,9.289,0,0,1,8.841,7.108c.642,2.611.825,5.336,1.274,8.426m-9.869-9.187c-2.788,3.052-1.85,6.294-1.518,9.395.837,7.819,1.75,15.628,2.65,23.6,4.264-3.714,8.8-7.474,13.1-11.492a43.448,43.448,0,0,0,5.491-6.628A23.043,23.043,0,0,0,71.6,33.656l-.906-.8c-2.952,1.864-6.008,3.585-8.825,5.632s-5.374,4.406-8.127,6.7c-1.338-2.814-1.354-2.816-1.2-5.04.227-3.37.739-6.745.637-10.1-.074-2.411-.147-5.155-3.234-6.925" transform="translate(23.688 9.48)" fill="#f26d10"/>
    </g>
  </g>
</svg>
