<svg xmlns="http://www.w3.org/2000/svg" xmlns:xlink="http://www.w3.org/1999/xlink" width="105.173" height="110.122" viewBox="0 0 105.173 110.122">
  <defs>
    <clipPath id="clip-path">
      <rect id="Rectangle_20" data-name="Rectangle 20" width="87.548" height="93.973" fill="none"/>
    </clipPath>
  </defs>
  <g id="Groupe_17" data-name="Groupe 17" transform="matrix(0.978, 0.208, -0.208, 0.978, 19.538, 0)">
    <g id="Groupe_16" data-name="Groupe 16" transform="translate(0 0.001)" clip-path="url(#clip-path)">
      <path id="Tracé_12" data-name="Tracé 12" d="M15.359,56.617c-2.45-1.318-4.517-2.424-6.576-3.54C2.655,49.754-.773,44.9.149,38.084,1.036,31.539,5.7,27.848,11.923,25.7a25.023,25.023,0,0,1,13.753-.471c1.907.418,3.8.872,6.163,1.413.168-2.409.341-4.457.45-6.508.426-8.009,4.7-13.826,11.671-17.991,9.228-5.515,18.161.645,19.935,6.84a26.961,26.961,0,0,1,1.132,11.073c-.858,5.742-2.719,11.365-4.413,16.968a9.344,9.344,0,0,1-2.876,4.071c-.812.7-2.8,1.224-3.473.773a4.907,4.907,0,0,1-1.936-3.52,13.345,13.345,0,0,1,1.358-4.8,40.283,40.283,0,0,0,2.629-17.913,10.564,10.564,0,0,0-1.862-5.195c-1.561-2.169-4.16-2.459-6.411-.912-4.466,3.066-7.769,6.752-7.484,12.511.234,4.8-.344,9.647,1.966,14.2a5.526,5.526,0,0,1,.5,3.038,3.271,3.271,0,0,1-5.43,1.988,16.05,16.05,0,0,1-2.386-2.98A19.593,19.593,0,0,0,14.837,31.2,10.1,10.1,0,0,0,12.419,32.2c-2.911,1.675-5.867,3.731-5.737,7.155a7.886,7.886,0,0,0,5.785,7.095A117.338,117.338,0,0,0,25.234,49.5c3.02.607,6.208.59,9.132,1.434,1.356.391,3.14,2.169,3.137,3.318,0,1.247-1.625,2.837-2.967,3.633-1.2.713-2.988.511-4.5.776-6.443,1.134-11.729,4.1-14.6,9.74-1.278,2.512-1.553,5.628-1.654,8.488-.093,2.693,1.944,3.958,4.445,2.718a53.2,53.2,0,0,0,9.316-5.936c3.047-2.411,5.665-5.306,8.5-7.964a18.134,18.134,0,0,1,3.414-2.935c2.5-1.376,4.991-.013,5.116,2.741a11.383,11.383,0,0,1-.573,3.7c-1.966,6.568.953,11.735,4.733,16.819,4.264-.733,5.481-3.623,5.8-6.437C55.1,74.466,56.281,69.11,52.3,64.5c-1.26-1.456-1.569-3.348.021-4.5,1.183-.857,3.079-.957,4.687-1.1.794-.071,1.643.564,2.488.816,8.85,2.666,17.522-2.2,19.645-10.806a5.924,5.924,0,0,0-1.715-6.293c-2.029-1.927-4.413-1.665-6.791-.789-1.649.607-3.159,1.648-4.847,2.023-1.076.237-2.852-.033-3.422-.728-.557-.678-.389-2.424.17-3.293,2.988-4.648,11.229-7.44,16.361-5.744,6.184,2.041,9.521,7.8,8.461,14.607C85.761,58.932,76.644,67.458,65.829,68.851a19.817,19.817,0,0,0-2.013.489c-.65,4.323-1.023,8.682-2.037,12.9a20.37,20.37,0,0,1-3.468,7.379,10.454,10.454,0,0,1-16.893.123c-2.434-3.187-4.157-6.86-6.528-10.871-1.444.847-3.065,1.759-4.645,2.731-2.775,1.716-5.356,3.8-8.318,5.137-7.766,3.5-15.78-1-16.209-9.105-.314-6,1.007-11.665,5.561-16.285,1.329-1.348,2.474-2.857,4.08-4.731" transform="translate(0 -0.002)" fill="#f26d10"/>
    </g>
  </g>
</svg>
