<svg xmlns="http://www.w3.org/2000/svg" xmlns:xlink="http://www.w3.org/1999/xlink" width="137.884" height="201.467" viewBox="0 0 137.884 201.467">
  <defs>
    <clipPath id="clip-path">
      <rect id="Rectangle_15" data-name="Rectangle 15" width="90.809" height="183.547" fill="none"/>
    </clipPath>
  </defs>
  <g id="Groupe_13" data-name="Groupe 13" transform="translate(36 30.031) rotate(-16)">
    <g id="Groupe_12" data-name="Groupe 12" transform="translate(-33.227 -14.73)" clip-path="url(#clip-path)">
      <path id="Tracé_9" data-name="Tracé 9" d="M37.942,35.867c4.676-5.021,8.344-9.656,12.524-13.228A40.815,40.815,0,0,1,62.04,15.612c7.11-2.76,12.524,1.749,17.422,8.357,4.571,6.17,4.579,13.325,2.75,20.515a51.421,51.421,0,0,1-5.779,13.962c-6.4,10.4-13.75,19.4-22.611,26.314-14.565,11.363-28.456,24.064-40.7,39.718a32.292,32.292,0,0,1-5.374,5.5c-3.6,2.828-6.505,1.278-7.394-4.064a50.317,50.317,0,0,1-.3-8.994C.341,100.866.78,84.812.994,68.75c.183-13.741.13-27.489.195-41.236.008-1.674.069-3.351.141-5.025C2.048,6.109,6,.044,15.955,0,29.328-.057,37.237,8.376,37.917,23.555c.164,3.645.025,7.312.025,12.312M11.326,108.214c4.072-3.644,6.944-6.236,9.831-8.8Q33.7,88.3,46.259,77.21c4.817-4.259,10.073-7.854,14.345-12.923A105.4,105.4,0,0,0,72.347,46.129c2.218-4.152,2.891-9.724.133-14.1s-6.587-6.189-10.893-4.081c-2.823,1.379-5.958,2.42-8.237,4.817-7,7.358-15.425,12.114-21.52,21.127-.843,1.245-3.189,2.43-3.824,1.808-1.188-1.163-1.947-3.583-2.279-5.651-.233-1.455.662-3.17.841-4.81.721-6.608,1.8-13.218,1.905-19.853.114-7.085-2.819-11.218-8.048-12.429-2.372-.549-4.876-.093-8.172-.093-.477,4.949-1.264,9.475-1.291,14.008-.143,24.133-.107,48.267-.1,72.4,0,2.308.233,4.617.463,8.937" transform="translate(0 0)" fill="#f26d10"/>
      <path id="Tracé_10" data-name="Tracé 10" d="M29.1,120.98c-5.6-2.6-5.306-6.383-4.514-10.018C26.92,100.234,29.321,89.516,32,78.871c1.8-7.146,6.059-10.476,11.6-9.816,5.34.635,8.895,5.246,9.4,12.307.12,1.655.017,3.328.017,5.809,2.912-.28,5.821-1.165,8.45-.645,2.662.526,6.339,1.9,7.2,3.91s-.925,5.416-2.067,7.977a8.538,8.538,0,0,1-3.557,3.437c-11.511,6.576-23.089,13.031-33.947,19.13" transform="translate(21.91 62.567)" fill="#f26d10"/>
    </g>
  </g>
</svg>
