<svg xmlns="http://www.w3.org/2000/svg" xmlns:xlink="http://www.w3.org/1999/xlink" width="148.622" height="155.901" viewBox="0 0 148.622 155.901">
  <defs>
    <clipPath id="clip-path">
      <rect id="Rectangle_3" data-name="Rectangle 3" width="124.181" height="111.527" fill="none"/>
    </clipPath>
  </defs>
  <g id="Groupe_2" data-name="Groupe 2" transform="translate(120.12 82) rotate(69)">
    <g id="Groupe_1" data-name="Groupe 1" transform="translate(-82.287 -14.448)" clip-path="url(#clip-path)">
      <path id="Tracé_1" data-name="Tracé 1" d="M29.8,0c4.148.438,6.309,2.751,7.536,6.384,4.585,13.563,9.3,27.084,13.92,40.631s9.2,27.09,13.768,40.646a24.553,24.553,0,0,1,1.685,6.393c.054,1.134-1.161,2.71-2.242,3.382a3.564,3.564,0,0,1-3.329-.548,27.592,27.592,0,0,1-4.1-5.19C49.123,79.462,41.411,67.1,33.36,54.956c-6.825-10.287-14.075-20.292-21.018-30.5A45.122,45.122,0,0,1,7.75,16.04C6.669,13.354,7.036,10.252,9.8,8.816,15.679,5.756,21.807,3.156,27.855.408A8.073,8.073,0,0,1,29.8,0" transform="translate(14.212 -0.001)" fill="#f26d10"/>
      <path id="Tracé_2" data-name="Tracé 2" d="M33.908,72.754c-.491-.831-1.429-1.775-1.59-2.835a32.233,32.233,0,0,1-.128-5.925c.545-15.069,1.09-30.139,1.715-45.208.313-7.551,2.257-9.341,9.659-8.233a73.012,73.012,0,0,1,12.917,3.3c4.46,1.539,5.16,4.2,3.031,8.763C53.977,34.487,48.43,46.352,43,58.271c-1.432,3.141-2.406,6.488-3.7,9.695-.917,2.272-1.787,4.716-5.386,4.788" transform="translate(63.514 20.275)" fill="#f26d10"/>
      <path id="Tracé_3" data-name="Tracé 3" d="M52.084,63.164c-2.573-.667-4.514-1.054-6.378-1.67Q27.028,55.331,8.386,49.072A23.111,23.111,0,0,1,4.98,47.607C-.547,44.677-1.214,42.762,1.7,36.989a57.261,57.261,0,0,1,5.345-8.87c3.216-4.237,6.062-4.806,10.13-1.667C29.122,35.658,40.886,45.1,52.707,54.479a6.534,6.534,0,0,1,2.013,2.147c.572,1.268,1.42,3.067.929,3.993-.649,1.227-2.477,1.828-3.564,2.546" transform="translate(-0.001 48.361)" fill="#f26d10"/>
    </g>
  </g>
</svg>
