<svg id="Groupe_32" data-name="Groupe 32" xmlns="http://www.w3.org/2000/svg" xmlns:xlink="http://www.w3.org/1999/xlink" width="534.659" height="400.572" viewBox="0 0 534.659 400.572">
  <defs>
    <clipPath id="clip-path">
      <rect id="Rectangle_39" data-name="Rectangle 39" width="534.659" height="400.572" fill="none"/>
    </clipPath>
  </defs>
  <g id="Groupe_31" data-name="Groupe 31" clip-path="url(#clip-path)">
    <path id="Tracé_23" data-name="Tracé 23" d="M165.952,399.6a4.359,4.359,0,0,1,.045.975l-66.238-.038-1.179-1.051c-4.017-3.718-8.046-7.422-12.048-11.156-5.554-5.184-11.159-10.314-16.615-15.6A270.78,270.78,0,0,1,28.226,320.6,210.952,210.952,0,0,1,7.981,276.862a154.608,154.608,0,0,1-5.934-26.191A182.922,182.922,0,0,1,.018,220.182a123.33,123.33,0,0,1,4.945-32.166c5.061-17.817,14.091-33.376,26.374-47.284,9.521-10.781,20.78-18.988,33.165-26.055,12.97-7.4,26.866-12.211,41.241-15.695,7.437-1.8,15.1-2.694,22.679-3.871,3.716-.576,7.477-.863,11.218-1.281l3.434-.04c3.62.042,7.257.333,10.856.075,6.905-.5,13.532,1.293,20.122,2.608a106.969,106.969,0,0,0,24.524,2.068c.5-.746,1.562-1.608,1.64-2.551.626-7.606,3.468-14.557,6.491-21.376,4.033-9.1,8.255-18.165,14.543-26A126.778,126.778,0,0,1,257.019,17.5,134.309,134.309,0,0,1,293.967,3.092c6.949-1.6,13.925-3.157,21.144-3.06C322.548.132,330-.2,337.42.217a163.646,163.646,0,0,1,20.14,2.4C365.629,4.09,373.552,6.35,381.6,7.968a138.74,138.74,0,0,1,25.567,8.18c9.862,4.076,19.4,8.937,29.218,13.121a129.148,129.148,0,0,1,24.479,13.774C472.7,51.5,484.345,60.208,494.847,70.459,507.4,82.708,518.008,96.2,525.7,111.936c3.791,7.752,6.074,16.013,7.887,24.456a62.9,62.9,0,0,1,1.055,10.66,8.96,8.96,0,0,1-4.828,8.788c-7.069.256-11.389-4.271-14.918-9.884-4.5-7.16-8.628-14.563-13.324-21.589-8.921-13.345-20.173-24.472-32.917-34.241a210.568,210.568,0,0,0-42.392-25.645c-15.524-6.912-31.409-13.019-47.978-17.022-5.444-1.315-11.13-1.609-16.615-2.788-11.6-2.493-23.346-2.582-35.055-2.1-13.523.555-26.891,2.59-39.279,8.54C264.666,62,249.853,79.631,242.68,103.711a27.669,27.669,0,0,0-1.107,3.751,28.034,28.034,0,0,0-.043,4.024c2.053,3.229,5.4,4.291,8.693,5.833,11.544,5.409,23.062,10.934,34.221,17.085a269.97,269.97,0,0,1,25.225,16.034c8.937,6.309,17.551,13.1,26.061,19.98a206.055,206.055,0,0,1,17.854,15.824c16.089,16.44,29.316,34.929,38.249,56.252,2.894,6.909,5.183,14.03,5.491,21.65.168,4.134,1.213,8.3.886,12.372-.768,9.549-2.478,18.946-7.916,27.193-6.467,9.807-15.424,16.316-26.386,20.366-9.633,3.56-19.609,4.07-29.606,3.217-18.613-1.589-34.957-8.845-49.841-20.145a192.028,192.028,0,0,1-28.168-26.53,225.277,225.277,0,0,1-20.2-27.228,303.657,303.657,0,0,1-19.058-34.5,284.184,284.184,0,0,1-16.471-45.8c-1.673-6.1-2.067-12.6-2.519-18.963-.519-7.286-4.749-11.566-12.1-12.175-8.6-.713-17.117-2.335-25.711-3.11a125.936,125.936,0,0,0-16.01-.08c-6.043.227-12.073.8-18.109,1.22l-1.4.827-8.989,1.612-1.286.751c-6.03,1.922-12.118,3.68-18.077,5.8a78.273,78.273,0,0,0-30.593,19.659C55.48,179.373,48.049,191.869,45.69,206.9c-.318,2.028-.763,4.037-1.149,6.054-1.041.337-1.287.737-.1,1.253a51.952,51.952,0,0,0-.047,20.184c.723,3.48.957,7.066,1.334,10.613,1.1,10.307,4.427,20,8.072,29.609,6.66,17.552,17.137,32.893,28.044,47.953A166.378,166.378,0,0,0,92.99,336.14c5.713,6.348,11.338,12.838,17.611,18.6,11.122,10.222,22.1,20.644,34.5,29.4,5.694,4.018,11.036,8.534,16.582,12.765,1.331,1.016,2.839,1.8,4.266,2.69M243.81,162.258c-.08,6.067.178,10.8,1.883,15.607,6.217,17.527,13.642,34.471,23.384,50.321,10.715,17.434,22.425,34.109,38.7,46.978,7.693,6.085,15.737,11.638,25.492,13.912,2.547.594,5.5-.1,7.835.858,4.333,1.776,7.783-.116,11.2-1.879,4.473-2.307,6.6-6.317,7.164-11.358.937-8.4-1.547-16-5.037-23.395a111.458,111.458,0,0,0-21.635-30.894c-8.668-8.788-17.126-17.815-27.3-24.944q-10.861-7.612-21.926-14.934a266.913,266.913,0,0,0-34.051-18.675,38.422,38.422,0,0,0-5.71-1.6" fill="#114f3c"/>
  </g>
</svg>
