<svg xmlns="http://www.w3.org/2000/svg" xmlns:xlink="http://www.w3.org/1999/xlink" width="84.755" height="87.969" viewBox="0 0 84.755 87.969">
  <defs>
    <clipPath id="clip-path">
      <rect id="Rectangle_163" data-name="Rectangle 163" width="65.351" height="70.536" fill="none"/>
    </clipPath>
  </defs>
  <g id="Groupe_490" data-name="Groupe 490" transform="translate(22.964 0) rotate(19)">
    <g id="Groupe_489" data-name="Groupe 489" transform="translate(0 0)" clip-path="url(#clip-path)">
      <path id="Tracé_961" data-name="Tracé 961" d="M0,24.008C1.593,37.331,2.623,48.74,4.415,60.05c1.425,9,6.53,11.982,16.742,9.8a47.207,47.207,0,0,0,14.6-5.624c12.5-7.708,21.129-18.412,27.265-30.553A22.337,22.337,0,0,0,65.3,22.322C64.59,12.785,54.716,7.683,44.8,11.567a51.677,51.677,0,0,0-11.088,6.32c-2.844,2.04-4,1.428-5.62-1.068C25.122,12.241,22.3,7.456,18.44,3.49c-5.145-5.291-11.3-4.52-13.9,2C1.956,11.974,1.161,19,0,24.008m9.92,6.066c.494-6.184.755-10.617,1.27-15.025.112-.945,1.133-1.808,1.736-2.709.916.672,2.167,1.188,2.686,2.046,2.366,3.914,4.748,7.844,6.713,11.922,3.906,8.109,3.807,8.167,12.271,2.909,3.35-2.081,6.458-4.531,10.02-6.274,2.276-1.112,5.176-1.235,7.794-1.8.363,2.548,1.767,5.411.913,7.588A60.758,60.758,0,0,1,29.28,57.95a24.976,24.976,0,0,1-5.931,2.54c-7.635,2.455-8.669,2.114-9.868-4.851C11.923,46.6,10.929,37.484,9.92,30.074" transform="translate(0 0.001)" fill="#f26d10"/>
    </g>
  </g>
</svg>
