<svg xmlns="http://www.w3.org/2000/svg" xmlns:xlink="http://www.w3.org/1999/xlink" width="156.978" height="173.384" viewBox="0 0 156.978 173.384">
  <defs>
    <clipPath id="clip-path">
      <rect id="Rectangle_162" data-name="Rectangle 162" width="110.489" height="141.458" fill="none"/>
    </clipPath>
  </defs>
  <g id="Groupe_488" data-name="Groupe 488" transform="matrix(0.921, 0.391, -0.391, 0.921, 55.272, 0)">
    <g id="Groupe_487" data-name="Groupe 487" transform="translate(0 0)" clip-path="url(#clip-path)">
      <path id="Tracé_952" data-name="Tracé 952" d="M29.368,119.306c-.134-8.575,2.711-16.371,6.761-23.7A323.6,323.6,0,0,1,64.05,53.036c1.67-2.141,2.047-3.421.25-5.833-4.4-5.912-3.751-12.682-2.036-19.345,1.917-7.444,7.011-12.468,13.346-16.321,4.909-2.987,9.947-5.7,13.718-10.257,1.742-2.105,3.78-1.548,4.026,1.173.689,7.586,4.272,13.91,7.989,20.255a25.477,25.477,0,0,1,3.224,15.9,14.969,14.969,0,0,1-9,12.486,26.556,26.556,0,0,1-8.057,2.224c-2.529.311-3.891,1.406-3.97,3.784-.16,4.874-.234,9.76-.127,14.635.345,15.653-1.5,30.983-6.8,45.772-3.689,10.306-10.549,17.717-20.822,21.87C38.6,146.33,30.552,134.6,29.382,122.6c-.106-1.09-.014-2.2-.014-3.3M79.428,50.32l-.063-.059c4.871,1.63,9.386-.059,13.754-1.793,5.281-2.1,7.837-6.327,8.089-12,.231-5.242-1.931-9.713-4.3-14.169-2-3.758-3.81-7.614-5.708-11.425-.172-.347-.373-.679-.562-1.019a3.47,3.47,0,0,0-.083,1.086c.811,3.176,1.456,6.414,2.542,9.5a21.242,21.242,0,0,1-.528,15.371A13,13,0,0,1,89.2,39.98c-.366.346-1.514-.133-2.3-.233.12-.657.033-1.464.389-1.946,3.752-5.084,3.9-10.623,2.084-16.367C88,17.1,86.644,12.8,87.914,8.181a3.421,3.421,0,0,0-.055-1.073,5.794,5.794,0,0,0-1.179.542c-3.677,2.813-7.361,5.617-10.988,8.5a34.673,34.673,0,0,0-4.642,4.133,23.524,23.524,0,0,0-5.384,22.169c.681,2.782,2.081,5.348,5.168,6.144,2.827.728,5.729,1.164,8.6,1.73m.638,31.651c.028-.611.057-1.221.08-1.833.181-4.633.177-4.575-4.37-4.794-5.841-.281-11.4-1.688-16.131-5.239-1.833-1.373-2.555-.907-3.583.767-4.221,6.872-8.8,13.541-12.741,20.564a127.513,127.513,0,0,0-8.049,17.206,28.24,28.24,0,0,0-.806,18.7c2.732,8.84,8.953,12.238,17.8,9.647,9.534-2.793,16.115-8.848,20.065-17.907C77.5,107.246,79,94.656,80.066,81.971m-3.439-9.61c3.153.561,3.536,1.15,3.606-3.731.059-4.02.251-8.048.624-12.049.132-1.4-.176-2.074-1.443-2.416-2.949-.794-5.873-1.7-8.859-2.307a3.127,3.127,0,0,0-2.624.98C65.42,56.444,63.2,60.255,60.7,63.87c-1.323,1.909-.983,3,.994,3.992a39.241,39.241,0,0,0,14.934,4.5" transform="translate(5.754 0)" fill="#fff"/>
      <path id="Tracé_953" data-name="Tracé 953" d="M25.833,69.6a10.068,10.068,0,0,1-1.022,1.725,15.8,15.8,0,0,1-2.6,2.571c-2.433,1.739-2.767,3.757-1.321,6.307a10.032,10.032,0,0,1,1.222,3.428,3.446,3.446,0,0,1-.64,2.562c-.376.4-1.61.251-2.339,0a19.846,19.846,0,0,1-2.88-1.585c-3.517-1.946-3.547-1.975-6.559.873a17.6,17.6,0,0,0-2.542,3.073c-.614.928-1.091,2.329-2.348,1.248a3.906,3.906,0,0,1-.983-3.057,26.951,26.951,0,0,1,1.557-5.209c.623-1.755-.047-2.8-1.645-3.463a2.663,2.663,0,0,1-.977-.488C1.756,76.473.043,75.341,0,74.168c-.075-2.157,2.179-2.981,3.945-3.05,3.237-.128,4.59-1.708,4.852-4.7a3.617,3.617,0,0,1,.561-1.727c.606-.852,1.306-2.105,2.105-2.218a3.02,3.02,0,0,1,2.453,1.651c1.293,4.793,4.378,5.043,8.38,3.837,1.315-.4,3.014-.712,3.534,1.642M13.2,73.351c-2.516.019-3.48,1.148-3.294,2.73.086.73,1.836,2,2.047,1.855a7.116,7.116,0,0,0,2.489-2.76c.187-.408-.95-1.421-1.242-1.825m-7.016,1.7c.056-.2.091-.317.126-.435-.073.023-.2.042-.206.069a1.432,1.432,0,0,0,.08.366m10.476,5.041-.122-.278c-.065.069-.169.133-.182.211s.068.167.109.252l.195-.185M12.195,69.2l-.166-.122L12,69.271Z" transform="translate(0 12.254)" fill="#fff"/>
      <path id="Tracé_954" data-name="Tracé 954" d="M13.89,14.531c.038-5.451,3.616-7.575,7.868-5.063a17.122,17.122,0,0,1,3.865,3.3c1.176,1.3,2.034,1.233,3.358.194a28.088,28.088,0,0,1,5.534-3.52c1.068-.488,3.073-.666,3.662-.043a4.329,4.329,0,0,1,.8,3.9c-2.891,5.89-6.012,11.675-9.262,17.378A2.9,2.9,0,0,1,25,31.488a36.953,36.953,0,0,1-10.84-14.946,6.705,6.705,0,0,1-.272-2.011m21.2-.974c-.47,0-.931-.145-1.142.023-1.6,1.268-3.525,2.343-4.621,3.969-1.414,2.1-2.5,1.871-4.032.452s-2.987-2.872-4.614-4.136a8.092,8.092,0,0,0-2.548-.846c-.06.9-.5,2.043-.117,2.663,2.371,3.785,4.894,7.476,7.444,11.146,1.1,1.579,2.031.743,2.713-.464,2.15-3.806,4.262-7.633,6.379-11.457a13.854,13.854,0,0,0,.538-1.349" transform="translate(2.725 1.652)" fill="#fff"/>
      <path id="Tracé_955" data-name="Tracé 955" d="M72.05,69.739C70.87,80.762,68.488,90.659,64.076,100a19.62,19.62,0,0,1-2.684,4.312c-.494.583-1.667.589-2.532.855a7.75,7.75,0,0,1-.045-2.615c2.042-5.851,4.342-11.614,6.256-17.5,1.312-4.04,2.13-8.238,3.177-12.365a9.644,9.644,0,0,1,.812-2.775,10.735,10.735,0,0,1,2.178-1.977c.368.819.736,1.639.812,1.81" transform="translate(11.516 13.326)" fill="#fff"/>
      <path id="Tracé_956" data-name="Tracé 956" d="M52.616,111.369c-1.109-.7-1.861-.944-2.185-1.458a1.729,1.729,0,0,1,.342-1.592,49.535,49.535,0,0,1,5.116-4.618c.562-.421,1.717-.053,2.6-.045-.059.778.184,1.836-.231,2.282-1.766,1.9-3.727,3.622-5.641,5.432" transform="translate(9.877 20.304)" fill="#fff"/>
      <path id="Tracé_957" data-name="Tracé 957" d="M62.847,32.275c1.127-2.65,1.889-5.542,3.462-7.891,2.489-3.718,5.5-7.087,8.353-10.555.3-.37,1-.413,1.522-.608.142.563.568,1.26.378,1.67a41.727,41.727,0,0,1-3.028,5.729c-1.48,2.214-3.477,4.105-4.787,6.4-1.116,1.957-1.532,4.305-2.347,6.447a15.96,15.96,0,0,1-1.306,2.274c-.577-.843-1.171-1.675-1.712-2.539-.11-.175-.017-.476-.017-.719l-.518-.209" transform="translate(12.329 2.594)" fill="#fff"/>
      <path id="Tracé_958" data-name="Tracé 958" d="M71.224,43.03c.269-.955.24-2.25.866-2.793a28.725,28.725,0,0,1,4.805-3.065c.175-.1,1.022.445,1.024.694,0,.659-.077,1.679-.492,1.921-2.023,1.176-4.166,2.144-6.268,3.185l.065.057" transform="translate(13.96 7.29)" fill="#fff"/>
      <path id="Tracé_959" data-name="Tracé 959" d="M66.552,46.646,61.46,52.161c-.409-.512-1.272-1.318-1.159-1.492,1.185-1.825,2.494-3.577,3.855-5.278a1.456,1.456,0,0,1,1.306-.286c.333.112.511.678,1.09,1.539" transform="translate(11.828 8.839)" fill="#fff"/>
      <path id="Tracé_960" data-name="Tracé 960" d="M59.589,51.948a9.46,9.46,0,0,1,1.134,1.809c-.822.877-1.764,1.641-2.672,2.438-.349-.4-1.066-1.06-.99-1.167.677-.98,1.494-1.864,2.529-3.079" transform="translate(11.193 10.191)" fill="#fff"/>
    </g>
  </g>
</svg>
