<svg xmlns="http://www.w3.org/2000/svg" xmlns:xlink="http://www.w3.org/1999/xlink" width="107.224" height="150.729" viewBox="0 0 107.224 150.729">
  <defs>
    <clipPath id="clip-path">
      <rect id="Rectangle_4" data-name="Rectangle 4" width="107.224" height="150.729" fill="none"/>
    </clipPath>
  </defs>
  <g id="Groupe_4" data-name="Groupe 4" transform="translate(0 0)">
    <g id="Groupe_3" data-name="Groupe 3" transform="translate(0 0)" clip-path="url(#clip-path)">
      <path id="Tracé_4" data-name="Tracé 4" d="M23.252,101.63c-2.641.118-3.747-.956-4.131-2.627-.586-2.543-.956-5.136-1.416-7.706-.641-3.6-1.479-7.172-1.881-10.8-.752-6.79-5.146-10.408-10.839-12.936C2.932,66.655.217,66.378.013,63.621c-.216-2.938,2.343-4.06,4.558-5.094C15.517,53.416,20.228,44.2,21.644,32.8c.151-1.21.147-2.45.414-3.631a2.809,2.809,0,0,1,2.908-2.478,2.86,2.86,0,0,1,3.142,2.82c.445,4.157.756,8.328,1.137,12.493.189,2.08.422,4.157.611,6.237.458,5.026,3.56,8.174,7.6,10.627,1.189.723,2.545,1.179,3.713,1.931,3.043,1.963,2.955,4.27-.21,5.869-1.242.628-2.6,1.015-3.867,1.593-6.943,3.177-11.041,8.26-11.129,16.208-.05,4.526-.427,9.048-.637,13.575-.088,1.893-.492,3.5-2.074,3.591" transform="translate(0 29.392)" fill="#f26d10"/>
      <path id="Tracé_5" data-name="Tracé 5" d="M46.165,74.943c-2.641.116-3.747-.956-4.131-2.627-.586-2.543-.956-5.136-1.416-7.706-.641-3.6-1.479-7.172-1.881-10.8-.752-6.79-5.146-10.408-10.839-12.936-2.053-.91-4.768-1.187-4.972-3.944-.216-2.938,2.343-4.06,4.558-5.094C38.43,26.729,43.141,17.517,44.557,6.109c.151-1.21.147-2.45.414-3.631A2.809,2.809,0,0,1,47.879,0a2.86,2.86,0,0,1,3.142,2.82c.445,4.157.756,8.328,1.137,12.493.189,2.08.422,4.157.611,6.237.458,5.026,3.56,8.174,7.6,10.627,1.189.723,2.545,1.179,3.713,1.931,3.043,1.963,2.955,4.27-.21,5.869-1.242.628-2.6,1.015-3.867,1.593-6.943,3.177-11.041,8.26-11.129,16.208-.05,4.526-.427,9.048-.637,13.575-.088,1.893-.492,3.5-2.074,3.591" transform="translate(25.236 -0.001)" fill="#f26d10"/>
      <path id="Tracé_6" data-name="Tracé 6" d="M70.617,73.062c-1.471,1.04-2.551,2.156-3.862,2.637-1.595.584-3.522.313-5.066.975-4.5,1.931-6.184,5.922-6.766,10.444-.267,2.064-.13,4.178-.225,6.266-.078,1.7-.7,3.2-2.549,3.457s-2.82-1.126-3.446-2.629a16.172,16.172,0,0,1-.574-2.536c-.6-2.541-1.276-5.064-1.8-7.62-.971-4.713-3.572-7.8-8.368-8.967-1.977-.483-4.6-.731-4.715-3.358-.13-3.036,2.78-3.123,4.846-3.757,6.733-2.068,10.425-6.548,11.219-13.543.456-4.024,1.753-5.953,3.562-5.451,2.839.79,2.681,3.3,2.8,5.562.065,1.219.046,2.442.132,3.658.359,5.2,2.828,8.855,7.844,10.641a44.76,44.76,0,0,1,4.858,1.883c.683.336,1.11,1.191,2.112,2.337" transform="translate(36.607 53.858)" fill="#f26d10"/>
    </g>
  </g>
</svg>
