<svg xmlns="http://www.w3.org/2000/svg" xmlns:xlink="http://www.w3.org/1999/xlink" width="485.082" height="521.048" viewBox="0 0 485.082 521.048">
  <defs>
    <clipPath id="clip-path">
      <rect id="Rectangle_16" data-name="Rectangle 16" width="419.173" height="314.048" fill="none"/>
    </clipPath>
  </defs>
  <g id="Groupe_15" data-name="Groupe 15" transform="translate(215.89 521.048) rotate(-121)">
    <g id="Groupe_14" data-name="Groupe 14" clip-path="url(#clip-path)">
      <path id="Tracé_11" data-name="Tracé 11" d="M130.106,313.284a3.417,3.417,0,0,1,.035.764l-51.931-.03-.924-.824c-3.149-2.915-6.308-5.819-9.446-8.746-4.354-4.064-8.749-8.086-13.026-12.23a212.292,212.292,0,0,1-32.686-40.868A165.386,165.386,0,0,1,6.257,217.06,121.213,121.213,0,0,1,1.6,196.526a143.411,143.411,0,0,1-1.591-23.9A96.69,96.69,0,0,1,3.891,147.4a94.5,94.5,0,0,1,20.677-37.071c7.464-8.452,16.292-14.887,26-20.427,10.168-5.8,21.063-9.573,32.333-12.3,5.831-1.413,11.838-2.112,17.78-3.035,2.913-.452,5.862-.677,8.795-1l2.692-.031c2.838.033,5.689.261,8.511.059,5.414-.389,10.609,1.014,15.776,2.045a83.864,83.864,0,0,0,19.227,1.621c.394-.585,1.225-1.261,1.286-2,.491-5.963,2.719-11.413,5.089-16.759,3.162-7.131,6.472-14.241,11.4-20.385A99.394,99.394,0,0,1,201.5,13.718,105.3,105.3,0,0,1,230.47,2.424c5.448-1.252,10.917-2.475,16.577-2.4,5.831.078,11.676-.183,17.49.145a128.3,128.3,0,0,1,15.79,1.881c6.326,1.156,12.538,2.927,18.847,4.2a108.772,108.772,0,0,1,20.045,6.413c7.732,3.2,15.208,7.007,22.907,10.287a101.252,101.252,0,0,1,19.192,10.8c9.278,6.633,18.41,13.457,26.643,21.494,9.839,9.6,18.158,20.183,24.191,32.518a82.691,82.691,0,0,1,6.183,19.174,49.316,49.316,0,0,1,.827,8.357,7.025,7.025,0,0,1-3.785,6.89c-5.542.2-8.929-3.348-11.7-7.749-3.528-5.613-6.764-11.417-10.446-16.926a113.4,113.4,0,0,0-25.807-26.845,165.085,165.085,0,0,0-33.235-20.106c-12.171-5.419-24.625-10.207-37.615-13.345-4.268-1.031-8.726-1.261-13.026-2.186-9.09-1.955-18.3-2.024-27.483-1.647-10.6.435-21.083,2.031-30.795,6.7-17.776,8.537-29.389,22.36-35.013,41.239a21.691,21.691,0,0,0-.868,2.941,21.977,21.977,0,0,0-.034,3.155c1.61,2.532,4.234,3.364,6.815,4.573,9.05,4.241,18.081,8.572,26.829,13.395a211.655,211.655,0,0,1,19.776,12.571c7.007,4.946,13.76,10.268,20.432,15.664a161.545,161.545,0,0,1,14,12.406c12.614,12.889,22.984,27.384,29.987,44.1,2.269,5.417,4.063,11,4.3,16.974.132,3.241.951,6.506.695,9.7-.6,7.486-1.943,14.854-6.206,21.319C300.92,245.8,293.9,250.9,285.3,254.075c-7.552,2.791-15.373,3.191-23.211,2.522-14.593-1.246-27.406-6.934-39.075-15.794A150.551,150.551,0,0,1,200.934,220,176.617,176.617,0,0,1,185.1,198.657a238.066,238.066,0,0,1-14.941-27.047,222.8,222.8,0,0,1-12.913-35.91c-1.312-4.781-1.621-9.882-1.975-14.867-.407-5.712-3.723-9.068-9.486-9.545-6.74-.559-13.42-1.831-20.157-2.438a98.735,98.735,0,0,0-12.552-.063c-4.738.178-9.465.626-14.2.956l-1.1.648-7.047,1.264-1.008.589c-4.728,1.507-9.5,2.885-14.172,4.548A61.366,61.366,0,0,0,51.565,132.2c-8.069,8.424-13.895,18.221-15.744,30.008-.249,1.59-.6,3.165-.9,4.746-.816.264-1.009.578-.079.982a40.73,40.73,0,0,0-.037,15.824c.567,2.728.75,5.54,1.046,8.321.861,8.081,3.471,15.682,6.328,23.213,5.221,13.761,13.435,25.788,21.986,37.6a130.444,130.444,0,0,0,8.739,10.64c4.479,4.977,8.889,10.065,13.807,14.586,8.72,8.014,17.325,16.185,27.05,23.048,4.464,3.15,8.652,6.691,13,10.008,1.044.8,2.226,1.411,3.345,2.109M191.147,127.21c-.063,4.757.14,8.468,1.476,12.236A206.714,206.714,0,0,0,210.956,178.9c8.4,13.668,17.581,26.741,30.338,36.831,6.031,4.771,12.338,9.124,19.986,10.907,2,.466,4.314-.078,6.143.673,3.4,1.392,6.1-.091,8.782-1.473,3.507-1.809,5.175-4.953,5.617-8.9.735-6.586-1.213-12.542-3.949-18.342a87.383,87.383,0,0,0-16.962-24.221c-6.8-6.89-13.427-13.967-21.4-19.556q-8.515-5.968-17.19-11.708a209.259,209.259,0,0,0-26.7-14.641,30.123,30.123,0,0,0-4.477-1.252" transform="translate(0 0)" fill="#ed6e14"/>
    </g>
  </g>
</svg>
