<svg xmlns="http://www.w3.org/2000/svg" xmlns:xlink="http://www.w3.org/1999/xlink" width="316.05" height="302.015" viewBox="0 0 316.05 302.015">
  <defs>
    <clipPath id="clip-path">
      <rect id="Rectangle_39" data-name="Rectangle 39" width="252.963" height="189.522" fill="none"/>
    </clipPath>
  </defs>
  <g id="Groupe_35" data-name="Groupe 35" transform="matrix(0.809, 0.588, -0.588, 0.809, 111.398, 0)">
    <g id="Groupe_31" data-name="Groupe 31" clip-path="url(#clip-path)">
      <path id="Tracé_23" data-name="Tracé 23" d="M78.517.461A2.064,2.064,0,0,0,78.538,0L47.2.018l-.558.5c-1.9,1.759-3.807,3.512-5.7,5.278-2.628,2.453-5.28,4.88-7.861,7.38A128.114,128.114,0,0,0,13.354,37.837,99.806,99.806,0,0,0,3.776,58.531,73.147,73.147,0,0,0,.968,70.923a86.546,86.546,0,0,0-.96,14.425,58.351,58.351,0,0,0,2.34,15.219,57.029,57.029,0,0,0,12.478,22.371,60.233,60.233,0,0,0,15.691,12.327,74.192,74.192,0,0,0,19.512,7.426c3.519.853,7.144,1.275,10.73,1.831,1.758.273,3.538.408,5.308.606l1.625.019c1.713-.02,3.433-.158,5.136-.035,3.267.235,6.4-.612,9.52-1.234a50.609,50.609,0,0,1,11.6-.978c.238.353.739.761.776,1.207A31.429,31.429,0,0,0,97.8,154.22c1.908,4.3,3.906,8.594,6.881,12.3A59.982,59.982,0,0,0,121.6,181.244a63.546,63.546,0,0,0,17.481,6.816,42.12,42.12,0,0,0,10,1.448c3.519-.047,7.046.11,10.555-.088a77.425,77.425,0,0,0,9.529-1.135c3.818-.7,7.566-1.767,11.374-2.532a65.642,65.642,0,0,0,12.1-3.87c4.666-1.928,9.178-4.228,13.824-6.208a61.1,61.1,0,0,0,11.582-6.517,135.061,135.061,0,0,0,16.079-12.971,71.07,71.07,0,0,0,14.6-19.624,49.9,49.9,0,0,0,3.732-11.571,29.761,29.761,0,0,0,.5-5.044,4.239,4.239,0,0,0-2.284-4.158c-3.345-.121-5.388,2.021-7.058,4.676-2.129,3.388-4.082,6.89-6.3,10.214a68.437,68.437,0,0,1-15.574,16.2,99.625,99.625,0,0,1-20.057,12.133,132.505,132.505,0,0,1-22.7,8.054c-2.576.622-5.266.761-7.861,1.319a65.631,65.631,0,0,1-16.586.994c-6.4-.263-12.723-1.225-18.584-4.041a38.7,38.7,0,0,1-21.129-24.887,13.09,13.09,0,0,1-.524-1.775,13.262,13.262,0,0,1-.02-1.9c.971-1.528,2.555-2.03,4.113-2.76,5.462-2.559,10.911-5.173,16.191-8.083a127.73,127.73,0,0,0,11.935-7.586c4.228-2.985,8.3-6.2,12.33-9.453a97.491,97.491,0,0,0,8.447-7.487,85.006,85.006,0,0,0,18.1-26.614,29.58,29.58,0,0,0,2.6-10.243c.079-1.956.574-3.926.419-5.854-.363-4.518-1.172-8.964-3.745-12.866a24.637,24.637,0,0,0-12.484-9.636,31.99,31.99,0,0,0-14.007-1.522c-8.806.752-16.539,4.185-23.581,9.531A90.855,90.855,0,0,0,121.26,56.754,106.585,106.585,0,0,0,111.7,69.637a143.669,143.669,0,0,0-9.017,16.322,134.455,134.455,0,0,0-7.793,21.671A46.48,46.48,0,0,0,93.7,116.6c-.246,3.447-2.247,5.472-5.725,5.76-4.068.337-8.1,1.1-12.165,1.471a59.585,59.585,0,0,1-7.575.038c-2.859-.107-5.712-.378-8.568-.577l-.663-.391-4.253-.763-.608-.355c-2.853-.909-5.733-1.741-8.553-2.745a37.033,37.033,0,0,1-14.474-9.3c-4.869-5.084-8.385-11-9.5-18.109-.15-.96-.361-1.91-.544-2.864-.493-.159-.609-.349-.048-.593A24.58,24.58,0,0,1,21,78.624c.342-1.646.453-3.343.631-5.021a56.469,56.469,0,0,1,3.819-14.009c3.151-8.3,8.108-15.563,13.268-22.688A78.717,78.717,0,0,1,44,30.485c2.7-3,5.364-6.074,8.332-8.8,5.262-4.836,10.455-9.767,16.324-13.909,2.694-1.9,5.221-4.038,7.845-6.04.63-.481,1.343-.852,2.018-1.273m36.837,112.292a20.387,20.387,0,0,1,.891-7.384,124.748,124.748,0,0,1,11.064-23.808c5.07-8.249,10.61-16.138,18.308-22.227,3.64-2.879,7.446-5.506,12.061-6.582,1.205-.281,2.6.047,3.707-.406,2.05-.84,3.682.055,5.3.889a6.39,6.39,0,0,1,3.389,5.374c.443,3.975-.732,7.569-2.383,11.069a52.734,52.734,0,0,1-10.236,14.617c-4.1,4.158-8.1,8.429-12.915,11.8q-5.139,3.6-10.374,7.066A126.284,126.284,0,0,1,118.055,112a18.18,18.18,0,0,1-2.7.756" transform="translate(0 0)" fill="#114f3c"/>
    </g>
  </g>
</svg>
