<svg id="Groupe_30" data-name="Groupe 30" xmlns="http://www.w3.org/2000/svg" xmlns:xlink="http://www.w3.org/1999/xlink" width="400.898" height="6.476" viewBox="0 0 400.898 6.476">
  <defs>
    <clipPath id="clip-path">
      <rect id="Rectangle_33" data-name="Rectangle 33" width="400.898" height="6.476" fill="none"/>
    </clipPath>
  </defs>
  <g id="Groupe_29" data-name="Groupe 29" transform="translate(0 0)" clip-path="url(#clip-path)">
    <path id="Tracé_22" data-name="Tracé 22" d="M400.9,3.777c-2.257,1.105-4.99.773-7.329.775-35.116.044-70.238,0-105.353.11-24.059.072-48.116.323-72.169.526-13.527.114-27.049.3-40.573.437-19.539.194-39.076.428-58.618.535Q72.49,6.4,28.122,6.476c-8.254.015-16.514-.223-24.768-.371A8.67,8.67,0,0,1,0,5.41C1.465,5.267,2.914,5.017,4.394,5c15.772-.207,31.542-.422,47.32-.547,26.817-.213,53.64-.325,80.453-.557,9.984-.086,19.952-.392,29.933-.7q-31.207,0-62.415,0C74.1,3.183,48.511,3.2,22.926,3.1c-4.4-.017-8.832-.46-13.148-.836C7.368,2.058,5.189,1.577,5.584.515c2.471-.8,5.322-.44,7.937-.393,4.24.076,8.462.349,12.69.352Q63.466.5,100.716.42c26.069-.062,52.136-.281,78.2-.261,19.542.015,39.085.3,58.627.463,20.042.164,40.088.284,60.124.488q38.313.39,76.614.884a11.018,11.018,0,0,1,1.492.033c7.7,1.372,16.667.746,25.123,1.75" transform="translate(0 0)" fill="#f26d10"/>
  </g>
</svg>
