<svg xmlns="http://www.w3.org/2000/svg" width="396.412" height="390.967" viewBox="0 0 396.412 390.967">
  <g id="im3" transform="translate(-54 -17.18)">
    <g id="OBJECTS" transform="translate(18 17.18)">
      <g id="Groupe_478" data-name="Groupe 478" transform="translate(36)">
        <path id="Tracé_766" data-name="Tracé 766" d="M309.78,249.225l3.061,3.061-3.061,3.07,1.815,1.815,3.061-3.07,3.061,3.07,1.824-1.815-3.07-3.07,3.07-3.061-1.824-1.815-3.061,3.061L311.6,247.41Z" transform="translate(-62.566 -24.007)" fill="#afcab7" opacity="0.27"/>
        <path id="Tracé_767" data-name="Tracé 767" d="M44.063,235.84,36,245.05l7.368,8.425L36,261.891l7.4,8.461L36,278.812l8.063,9.21v-1.607l-6.637-7.585,7.468-8.533-7.4-8.461,7.4-8.452-7.386-8.443,6.556-7.495Z" transform="translate(-36 -22.884)" fill="#fbf8f5"/>
        <g id="Groupe_431" data-name="Groupe 431" transform="translate(84.455)" opacity="0.32">
          <path id="Tracé_768" data-name="Tracé 768" d="M152.592,20.081a11.628,11.628,0,1,1-9.3-13.563,11.631,11.631,0,0,1,9.3,13.563Z" transform="translate(-129.531 -0.613)" fill="#f5b01a"/>
          <path id="Tracé_769" data-name="Tracé 769" d="M148.59.677A10.953,10.953,0,1,1,137.637,11.63,10.964,10.964,0,0,1,148.59.677m0-.677a11.63,11.63,0,1,0,11.63,11.63A11.634,11.634,0,0,0,148.59,0Z" transform="translate(-130.251)" fill="#211f1c"/>
        </g>
        <path id="Tracé_770" data-name="Tracé 770" d="M471.094,270.4a3.224,3.224,0,1,0,3.224,3.224A3.226,3.226,0,0,0,471.094,270.4Zm0,5.382a2.158,2.158,0,1,1,2.158-2.158A2.158,2.158,0,0,1,471.094,275.782Z" transform="translate(-77.905 -26.238)" fill="#01614d"/>
        <g id="Groupe_432" data-name="Groupe 432" transform="translate(360.862 67.271)" opacity="0.22">
          <path id="Tracé_771" data-name="Tracé 771" d="M435.64,97.611,449.166,78.82l11.757,18.791Z" transform="translate(-435.64 -74.919)" fill="#afcab7"/>
          <path id="Tracé_772" data-name="Tracé 772" d="M458.73,75.71,469.3,92.6H446.567L458.73,75.71m.036-1.21L445.24,93.282h25.283L458.766,74.5Z" transform="translate(-436.572 -74.5)" fill="#211f1c"/>
        </g>
        <path id="Tracé_773" data-name="Tracé 773" d="M185.252,380.19A12.91,12.91,0,0,0,172.34,393.1h25.825A12.91,12.91,0,0,0,185.252,380.19Z" transform="translate(-49.229 -36.891)" fill="#f5b01a"/>
        <path id="Tracé_774" data-name="Tracé 774" d="M399.016,7.543a7.322,7.322,0,0,1,7.323,7.323h3.6a10.926,10.926,0,1,0-21.852,0h3.6a7.322,7.322,0,0,1,7.323-7.323Z" transform="translate(-70.164 -0.382)" fill="#01614d"/>
        <path id="Tracé_775" data-name="Tracé 775" d="M54.253,360.216a7.322,7.322,0,0,1,7.323-7.323v-3.6a10.926,10.926,0,1,0,0,21.852v-3.6a7.322,7.322,0,0,1-7.323-7.323Z" transform="translate(-37.422 -33.893)" fill="#01614d"/>
        <g id="Groupe_453" data-name="Groupe 453" transform="translate(144.249 5.198)">
          <g id="Groupe_433" data-name="Groupe 433" transform="translate(0 0.083)">
            <path id="Tracé_776" data-name="Tracé 776" d="M226.108,74.1v59.542H199.949a4.2,4.2,0,0,1-4.2-4.208V78.308a4.2,4.2,0,0,1,4.2-4.2h26.159Z" transform="translate(-195.75 -12.471)" fill="#013025"/>
            <path id="Tracé_777" data-name="Tracé 777" d="M331.2,95.668c-2.691,25.319-17.066,31.351-17.066,31.351H229.37V67.477c23.784-4.578,35.116-33.87,32.66-48.553a31.409,31.409,0,0,0,.018-8.975,5.8,5.8,0,0,1,6.637-4.018c16.353,2.564,17.283,36.489,17.156,47.55a3.616,3.616,0,0,0,3.368,3.657c6.249.424,19.874,1.661,31.821,4.786,7.838,2.05,11.088,4.109,12.055,8.587,1.02,4.732-.506,12.172-1.887,25.157Z" transform="translate(-199.012 -5.848)" fill="#960"/>
          </g>
          <g id="Groupe_434" data-name="Groupe 434">
            <path id="Tracé_778" data-name="Tracé 778" d="M226.108,74.1v50.476H199.949a4.2,4.2,0,0,1-4.2-4.2V78.308a4.2,4.2,0,0,1,4.2-4.2h26.159Z" transform="translate(-195.75 -12.388)" fill="#01614d"/>
            <path id="Tracé_779" data-name="Tracé 779" d="M333.085,70.5c-.415,4.136-1.174,9.373-1.887,16.091-2.691,25.319-17.066,31.351-17.066,31.351H229.37V67.468c11.856-2.275,21.084-11.043,26.674-21.409,4.036-7.477,5.291-15.9,5.833-24.272.316-4.894-1.589-17.581,6.808-15.874,16.353,2.564,17.283,36.489,17.156,47.55a3.616,3.616,0,0,0,3.368,3.657c6.249.424,19.874,1.661,31.821,4.786,7.838,2.05,11.088,4.109,12.055,8.587Z" transform="translate(-199.012 -5.756)" fill="#f5b01a"/>
          </g>
          <path id="Tracé_780" data-name="Tracé 780" d="M306.444,140.04H319.2l-6.167,6.736v7.3H303.97v-6.3a10.3,10.3,0,0,1,.894-4.19l1.58-3.531Z" transform="translate(-206.251 -18.786)" fill="#bf6d3e"/>
          <g id="Groupe_435" data-name="Groupe 435" transform="translate(94.604 114.834)">
            <path id="Tracé_781" data-name="Tracé 781" d="M305.748,145.183a4.035,4.035,0,0,0-.253-7.368,5.933,5.933,0,0,0-4.975-4.885,44.019,44.019,0,0,1,3.386,12.849l1.842-.6Z" transform="translate(-300.52 -132.93)" fill="#bf6d3e"/>
            <path id="Tracé_782" data-name="Tracé 782" d="M304.051,134.268a2.7,2.7,0,0,1,1.4,2.176,3.562,3.562,0,0,0,.542,1.436,5.675,5.675,0,0,0,1.3.9,3.5,3.5,0,0,1,1.571,2.528,7.484,7.484,0,0,1-.7,3.359c-.126.352-.641.072-.515-.271a6.623,6.623,0,0,0,.614-3.187,3.236,3.236,0,0,0-1.824-2.266,2.837,2.837,0,0,1-1.011-.84,3.549,3.549,0,0,1-.47-1.165c-.2-.795-.325-1.833-1.2-2.158-.352-.126-.072-.641.271-.515Z" transform="translate(-300.819 -133.058)" fill="#80410e"/>
          </g>
          <path id="Tracé_783" data-name="Tracé 783" d="M213.8,140.04H201.04l6.167,6.736v7.3h9.066v-6.3a10.3,10.3,0,0,0-.894-4.19l-1.58-3.531Z" transform="translate(-196.263 -18.786)" fill="#bf6d3e"/>
          <g id="Groupe_436" data-name="Groupe 436" transform="translate(71.795 132.418)">
            <path id="Tracé_784" data-name="Tracé 784" d="M275.26,207.5a100.944,100.944,0,0,0,20.561-17.734,370.3,370.3,0,0,0,4.235-36.958,63.177,63.177,0,0,1,11.612-.226,207.524,207.524,0,0,1,2.781,49.2c-10.24,10.122-21.175,21.427-31.414,31.559l-7.766-25.834Z" transform="translate(-275.26 -152.404)" fill="#01614d"/>
            <path id="Tracé_785" data-name="Tracé 785" d="M313.961,198.566a16.738,16.738,0,0,0,1.535-2.646q-.068,5.025-.406,10.077c-10.24,10.122-21.175,21.427-31.414,31.559l-1.806-6c11.341-10.2,22.538-20.642,32.1-32.985Z" transform="translate(-275.901 -156.626)" fill="#013025"/>
            <path id="Tracé_786" data-name="Tracé 786" d="M303.722,159.22q3.874.095,7.747.181c.37,0,.4.587.027.578q-3.874-.095-7.747-.181C303.378,159.8,303.351,159.211,303.722,159.22Z" transform="translate(-277.996 -153.065)" fill="#013025"/>
          </g>
          <g id="Groupe_437" data-name="Groupe 437" transform="translate(6.209 132.418)">
            <path id="Tracé_787" data-name="Tracé 787" d="M242.243,207.5a100.944,100.944,0,0,1-20.561-17.734,370.3,370.3,0,0,1-4.235-36.958,63.177,63.177,0,0,0-11.612-.226,207.524,207.524,0,0,0-2.781,49.2c10.24,10.122,21.175,21.427,31.414,31.559l7.766-25.834Z" transform="translate(-202.626 -152.404)" fill="#01614d"/>
            <path id="Tracé_788" data-name="Tracé 788" d="M234.966,228.38q.257,2.912.415,5.824l-.9,3.016c-10.24-10.122-21.175-21.427-31.414-31.559q-.447-6.569-.424-13.111c5.625,15.007,18.357,26.5,32.335,35.821Z" transform="translate(-202.627 -156.299)" fill="#013025"/>
            <path id="Tracé_789" data-name="Tracé 789" d="M206.852,159.644q5.133-.257,10.258-.524a.29.29,0,0,1,.027.578q-5.133.257-10.258.524A.289.289,0,0,1,206.852,159.644Z" transform="translate(-203.01 -153.055)" fill="#013025"/>
          </g>
          <g id="Groupe_442" data-name="Groupe 442" transform="translate(26.891 255.922)">
            <g id="Groupe_441" data-name="Groupe 441">
              <g id="Groupe_438" data-name="Groupe 438" transform="translate(3.562)">
                <path id="Tracé_790" data-name="Tracé 790" d="M232.959,413.42c0,1.418.009,2.8.027,4.127h8.226l.461-4.127H232.95Z" transform="translate(-229.813 -301.235)" fill="#01614d"/>
                <path id="Tracé_791" data-name="Tracé 791" d="M278.079,413.42c0,1.418.009,2.8.027,4.127h8.226l.461-4.127H278.07Z" transform="translate(-234.191 -301.235)" fill="#01614d"/>
                <path id="Tracé_792" data-name="Tracé 792" d="M285.378,289.189c-21.807,2.4-24.958,14.872-24.958,14.872l8.8,51.993,4.623,47.622H288.52c4.434-59.551-3.133-114.5-3.133-114.5Z" transform="translate(-232.479 -289.18)" fill="#013025"/>
                <path id="Tracé_793" data-name="Tracé 793" d="M263.269,303.618s9.7-6.212,10.836-11.648L234.8,293.261s-5.472,70.215-5.318,108.374h15Z" transform="translate(-229.476 -289.451)" fill="#01614d"/>
                <path id="Tracé_794" data-name="Tracé 794" d="M262.167,310.817l-17.689,94.577h-15c-.117-28.389,2.889-76.843,4.425-98.6a81.256,81.256,0,0,0,28.254,4.027Z" transform="translate(-229.476 -290.889)" fill="#01614d"/>
                <path id="Tracé_795" data-name="Tracé 795" d="M234.39,305.352c.533-7.486.894-12.091.894-12.091l39.306-1.291c-1.138,5.436-10.836,11.648-10.836,11.648l-1.1,5.761a81.015,81.015,0,0,1-28.254-4.027Z" transform="translate(-229.953 -289.451)" fill="#013025"/>
                <path id="Tracé_796" data-name="Tracé 796" d="M271.643,297.163c1.923-1.932,3.612-4.136,4.045-6.23l-36.8-1.743s-.3,3.955-.442,5.6a101.033,101.033,0,0,0,33.184,2.375Z" transform="translate(-230.347 -289.181)" fill="#013025"/>
              </g>
              <g id="Groupe_439" data-name="Groupe 439" transform="translate(0 115.426)">
                <path id="Tracé_797" data-name="Tracé 797" d="M240.99,417.272l-9.635-.262a22.456,22.456,0,0,0-5.535,10.068h17.391a41,41,0,0,0-2.221-9.8Z" transform="translate(-225.559 -417.01)" fill="#01614d"/>
                <path id="Tracé_798" data-name="Tracé 798" d="M225.8,428.159c-.09.361-.181.722-.253,1.084a.92.92,0,0,0,.894,1.1h15.946a.911.911,0,0,0,.912-.984c-.036-.406-.072-.8-.117-1.21H225.792Z" transform="translate(-225.531 -418.091)" fill="#a86114"/>
              </g>
              <g id="Groupe_440" data-name="Groupe 440" transform="translate(44.593 115.426)">
                <path id="Tracé_799" data-name="Tracé 799" d="M277.271,417.272l9.635-.262c2.682,2.79,18.845,6.312,19.784,10.068H275.05a41,41,0,0,1,2.221-9.8Z" transform="translate(-274.929 -417.01)" fill="#01614d"/>
                <path id="Tracé_800" data-name="Tracé 800" d="M306.668,428.159c.09.361.181.722.253,1.084a.92.92,0,0,1-.894,1.1h-30.2a.911.911,0,0,1-.912-.984c.036-.406.072-.8.117-1.21h31.64Z" transform="translate(-274.916 -418.091)" fill="#a86114"/>
              </g>
            </g>
            <path id="Tracé_801" data-name="Tracé 801" d="M240.732,366.059c-1.192-2.05-2.447-4.054-3.431-6.212a57.337,57.337,0,0,1-2.438-6.754.225.225,0,0,0-.433.117,30.964,30.964,0,0,0,2.266,6.89,28.6,28.6,0,0,0,3.612,6.285C240.506,366.628,240.886,366.312,240.732,366.059Z" transform="translate(-226.394 -295.366)" fill="#013025"/>
            <path id="Tracé_802" data-name="Tracé 802" d="M232.1,411.87h9.562c.37,0,.4.578.027.578h-9.562C231.758,412.448,231.731,411.87,232.1,411.87Z" transform="translate(-226.143 -301.085)" fill="#013025"/>
          </g>
          <g id="Groupe_445" data-name="Groupe 445" transform="translate(32.642 186.43)">
            <path id="Tracé_803" data-name="Tracé 803" d="M278.979,220.32a6.538,6.538,0,0,0-4.542-5.725,44.465,44.465,0,0,0-18-2.257,76.787,76.787,0,0,0-16.515,3.151c-3.513,1.029-5.707,4.172-5.165,7.4a256.686,256.686,0,0,1,3.061,58.467c14.411,4.181,28.778,5.4,42.4.641.461-19.9-.316-41.744-1.246-61.673Z" transform="translate(-232.17 -212.22)" fill="#f2e7d7"/>
            <path id="Tracé_804" data-name="Tracé 804" d="M260.353,218.06a22.781,22.781,0,0,0-4.406,2.926c-.587-1.084-1.12-2.194-1.68-3.287-.307-.6-.614-1.2-.93-1.8a10.2,10.2,0,0,0-.984-1.761c-.172-.208-.5.018-.433.253a9.259,9.259,0,0,0,.822,1.77c.307.623.623,1.255.939,1.878.614,1.228,1.273,2.438,1.851,3.684a.369.369,0,0,0,.569.072,26.348,26.348,0,0,1,4.605-3.16c.388-.208.045-.777-.343-.587Z" transform="translate(-233.842 -212.398)" fill="#d6c15e"/>
            <path id="Tracé_805" data-name="Tracé 805" d="M266.962,218.156c-.018-.524-.036-1.047-.045-1.571a3.419,3.419,0,0,0-.117-1.517.237.237,0,0,0-.406,0,3.028,3.028,0,0,0-.117,1.454c0,.542.018,1.093.045,1.634.036.876.1,1.743.172,2.61-.722-.415-1.445-.822-2.158-1.228-.442-.253-.885-.5-1.336-.74a4.668,4.668,0,0,0-1.382-.632.18.18,0,0,0-.172.3,4.816,4.816,0,0,0,1.246.867c.433.262.876.515,1.318.768.9.515,1.8,1.029,2.7,1.544.2.108.515-.027.488-.28-.108-1.065-.181-2.131-.226-3.206Z" transform="translate(-234.762 -212.485)" fill="#d6c15e"/>
            <path id="Tracé_806" data-name="Tracé 806" d="M261.23,218.84l-2.05,1.616,1.02,1.6-.19,54.485,4.063,2.113,3.458-2.113-4.768-54.178.587-2.14Z" transform="translate(-234.547 -212.862)" fill="#d6c15e"/>
            <path id="Tracé_807" data-name="Tracé 807" d="M233.263,226.777c-.7-4.65,1.21-9.689,4.966-11.052a37.518,37.518,0,0,1,9.481-2.212c2.537,10.592,12.994,32.227,12.994,32.227s8.136-24.768,3.35-33.3c3.052-.163,8.876.7,11.937,2.266,2.88,1.472,4.686,6.212,4.9,9.887,1.336,22.728,5.58,46.34,7.368,69.393-2.221,1.038-5.12,1.065-7.513,1.273-3.892.352-7.8.533-11.7.677-12.66.47-25.175.063-37.148-4.542,1.734-21.59,4.542-43.108,1.345-64.616Z" transform="translate(-231.9 -212.239)" fill="#01614d"/>
            <path id="Tracé_808" data-name="Tracé 808" d="M237.806,231.9c1.824,20.524.054,41.41-3.883,61.808-.668-.235-1.345-.47-2.014-.731,1.725-21.445,4.5-42.828,1.409-64.183C234.8,229.855,236.289,230.894,237.806,231.9Z" transform="translate(-231.901 -213.828)" fill="#013025"/>
            <g id="Groupe_443" data-name="Groupe 443" transform="translate(29.928 6.437)">
              <path id="Tracé_809" data-name="Tracé 809" d="M271.958,232.244l4.289-1.472c.361-.126.713-.244,1.075-.37a5.673,5.673,0,0,0,.948-.352c.614-.343.379-1.075.2-1.616-.948-2.908-1.914-5.806-2.871-8.714a.29.29,0,0,1,.551-.181c.813,2.474,1.625,4.939,2.438,7.413.19.578.415,1.147.56,1.734a1.918,1.918,0,0,1-.036,1.309,1.681,1.681,0,0,1-1.029.749c-.6.208-1.192.406-1.8.614-1.391.479-2.772.948-4.163,1.427a.29.29,0,0,1-.181-.551Z" transform="translate(-265.695 -219.349)" fill="#013025"/>
              <path id="Tracé_810" data-name="Tracé 810" d="M272.329,233.781c1.616,1.671,3.233,3.35,4.849,5.021.262.271-.135.7-.388.424l-4.849-5.021C271.679,233.934,272.076,233.51,272.329,233.781Z" transform="translate(-265.705 -220.741)" fill="#013025"/>
              <path id="Tracé_811" data-name="Tracé 811" d="M265.113,253.137q5.5-6.894,10.989-13.788c.235-.289.659.1.424.388q-5.5,6.894-10.989,13.788C265.3,253.815,264.878,253.426,265.113,253.137Z" transform="translate(-265.044 -221.28)" fill="#013025"/>
            </g>
            <g id="Groupe_444" data-name="Groupe 444" transform="translate(10.869 8.12)">
              <path id="Tracé_812" data-name="Tracé 812" d="M251.57,233.436l-4.452-.858-1.111-.217a5.173,5.173,0,0,1-.984-.217c-.659-.253-.524-1.011-.424-1.571.533-3.007,1.084-6.014,1.625-9.03a.289.289,0,0,0-.569-.1c-.461,2.555-.921,5.12-1.382,7.675-.108.6-.244,1.2-.316,1.8a1.887,1.887,0,0,0,.226,1.291,1.68,1.68,0,0,0,1.12.6c.623.126,1.237.235,1.86.361,1.436.28,2.88.551,4.316.831a.289.289,0,0,0,.1-.569Z" transform="translate(-243.937 -221.212)" fill="#013025"/>
              <path id="Tracé_813" data-name="Tracé 813" d="M251.563,234.958c-1.363,1.887-2.736,3.765-4.1,5.653-.217.3.226.668.451.37,1.363-1.887,2.736-3.765,4.1-5.653C252.231,235.03,251.789,234.66,251.563,234.958Z" transform="translate(-244.274 -222.535)" fill="#013025"/>
              <path id="Tracé_814" data-name="Tracé 814" d="M260.664,253.279l-12.8-12.127c-.271-.253-.641.19-.37.451l12.8,12.127C260.565,253.983,260.935,253.541,260.664,253.279Z" transform="translate(-244.273 -223.14)" fill="#013025"/>
            </g>
            <path id="Tracé_815" data-name="Tracé 815" d="M264.049,250.353q.623,9.725.966,19.477t.424,19.5q.041,5.485,0,10.98c0,.37-.578.4-.578.027q.081-9.752-.108-19.5t-.659-19.486q-.257-5.486-.614-10.962a.289.289,0,0,1,.578-.027Z" transform="translate(-234.964 -215.895)" fill="#013025"/>
            <path id="Tracé_816" data-name="Tracé 816" d="M275.213,283a16.871,16.871,0,0,0,10.384-.415c.352-.126.524.424.181.551a17.382,17.382,0,0,1-10.691.433c-.361-.1-.235-.668.126-.569Z" transform="translate(-236.07 -219.046)" fill="#013025"/>
            <path id="Tracé_817" data-name="Tracé 817" d="M240.7,283.843a16.871,16.871,0,0,0,10.384-.415c.352-.126.524.424.181.551a17.381,17.381,0,0,1-10.691.433C240.216,284.313,240.342,283.744,240.7,283.843Z" transform="translate(-232.721 -219.128)" fill="#013025"/>
          </g>
          <g id="Groupe_451" data-name="Groupe 451" transform="translate(48.721 152.746)">
            <path id="Tracé_818" data-name="Tracé 818" d="M270.631,190.541a15.917,15.917,0,0,0-.7-10.754,3.578,3.578,0,0,0-.379-2.51,4.759,4.759,0,0,0-1.806-1.734,4.282,4.282,0,0,0-3.278-.479,2.824,2.824,0,0,0-2.05,2.447,13.059,13.059,0,0,0-2.474-1.327,4.8,4.8,0,0,0-2.889-.181,2.945,2.945,0,0,0-2.059,1.923,2.127,2.127,0,0,0,1.056,2.483,3.22,3.22,0,0,0-3.431-.6,4.516,4.516,0,0,0-2.239,2.465,4.721,4.721,0,0,0-.379,2.655,2.877,2.877,0,0,0,1.535,2.113,3.917,3.917,0,0,0-1.734,4.37,10.1,10.1,0,0,0,2.528,4.488,21.413,21.413,0,0,1,3.151,4.136l15.161-9.508Z" transform="translate(-249.706 -174.916)" fill="#7a2923"/>
            <path id="Tracé_819" data-name="Tracé 819" d="M270.329,190.995a16.5,16.5,0,0,0-.623-10.348,3.647,3.647,0,0,0-.343-2.411,4.4,4.4,0,0,0-1.607-1.671,3.574,3.574,0,0,0-2.917-.461,2.685,2.685,0,0,0-1.824,2.357,11.7,11.7,0,0,0-2.194-1.282,3.946,3.946,0,0,0-2.573-.172,2.75,2.75,0,0,0-1.833,1.851,2.123,2.123,0,0,0,.939,2.393,2.677,2.677,0,0,0-3.052-.569,4.258,4.258,0,0,0-2,2.375,4.862,4.862,0,0,0-.334,2.555,2.753,2.753,0,0,0,1.363,2.032c-1.382.749-1.833,2.564-1.544,4.208a9.83,9.83,0,0,0,2.248,4.316,20.388,20.388,0,0,1,2.808,3.973l13.481-9.156Z" transform="translate(-249.9 -175.018)" fill="#013025"/>
            <g id="Groupe_450" data-name="Groupe 450" transform="translate(1.333 8.337)">
              <g id="Groupe_449" data-name="Groupe 449">
                <g id="Groupe_448" data-name="Groupe 448">
                  <g id="Groupe_446" data-name="Groupe 446" transform="translate(2.714 12.101)">
                    <path id="Tracé_820" data-name="Tracé 820" d="M254.533,197.559a69.22,69.22,0,0,1-.325,14.077,2.547,2.547,0,0,0,1.065,2.42,10.474,10.474,0,0,0,7.468,1.779,2.536,2.536,0,0,0,2.122-2.727,83.385,83.385,0,0,1-.253-9.048,20.354,20.354,0,0,0-10.077-6.51Z" transform="translate(-254.188 -197.55)" fill="#bf6d3e"/>
                    <path id="Tracé_821" data-name="Tracé 821" d="M264.647,204.07a20.353,20.353,0,0,0-10.077-6.51c.1,1.237.153,2.465.19,3.7a14.371,14.371,0,0,0,10,9.725c-.126-2.275-.172-4.524-.117-6.926Z" transform="translate(-254.225 -197.551)" fill="#80410e"/>
                  </g>
                  <g id="Groupe_447" data-name="Groupe 447">
                    <path id="Tracé_822" data-name="Tracé 822" d="M270.829,188.62c.876,6.547-.5,17.752-5.436,18.267-5.806.6-9.373-4.569-10.673-9.328a1.454,1.454,0,0,1-1.1.361,2.77,2.77,0,0,1-1.607-1.147c-.587-.885-1.192-2.266-.56-3.278a1.769,1.769,0,0,1,3.178-.036,18.418,18.418,0,0,1,1.544-6.808,2.617,2.617,0,0,1,1.58-1.571,18.5,18.5,0,0,1,10.89-.217,2.636,2.636,0,0,1,1.743,1.8,15.178,15.178,0,0,1,.442,1.978Z" transform="translate(-251.182 -184.149)" fill="#bf6d3e"/>
                    <path id="Tracé_823" data-name="Tracé 823" d="M264.6,189.478c-1.056-1.336-3.955-.415-5.02.442-.2.154-.433.361-.406.632a.32.32,0,0,0,.235.307c.325.09.641-.181.912-.325a4.671,4.671,0,0,1,1.138-.424,4.917,4.917,0,0,1,1.5-.09,5.63,5.63,0,0,0,1.436.208c.379-.054.388-.533.2-.768Z" transform="translate(-251.957 -184.6)" fill="#013025"/>
                    <path id="Tracé_824" data-name="Tracé 824" d="M263.348,192.1a.518.518,0,0,0-.135-.208.7.7,0,0,0-.451-.19,1.131,1.131,0,0,0-.172.027.549.549,0,0,0-.28.163,1.547,1.547,0,0,1-.1.126.676.676,0,0,0-.09.325v.072a.538.538,0,0,0,.054.244.518.518,0,0,0,.135.208.7.7,0,0,0,.451.19l.172-.027a.55.55,0,0,0,.28-.163,1.55,1.55,0,0,1,.1-.126.676.676,0,0,0,.09-.325v-.072A.537.537,0,0,0,263.348,192.1Z" transform="translate(-252.244 -184.881)" fill="#013025"/>
                    <path id="Tracé_825" data-name="Tracé 825" d="M271.138,192.547a.518.518,0,0,0-.135-.208.7.7,0,0,0-.451-.19,1.128,1.128,0,0,0-.172.027.549.549,0,0,0-.28.163,1.543,1.543,0,0,1-.1.126.676.676,0,0,0-.09.325v.072a.537.537,0,0,0,.054.244.518.518,0,0,0,.135.208.7.7,0,0,0,.452.19l.172-.027a.549.549,0,0,0,.28-.163,1.55,1.55,0,0,1,.1-.126.676.676,0,0,0,.09-.325v-.072A.537.537,0,0,0,271.138,192.547Z" transform="translate(-253 -184.925)" fill="#013025"/>
                    <path id="Tracé_826" data-name="Tracé 826" d="M272.339,190.475a1.939,1.939,0,0,0-1.3-.867,3.015,3.015,0,0,0-1.526-.027.472.472,0,0,0-.343.533c.054.388.388.406.7.406a3.052,3.052,0,0,1,1.2.226c.262.108,1.625.795,1.354-.072a.6.6,0,0,0-.081-.19Z" transform="translate(-252.927 -184.667)" fill="#013025"/>
                    <path id="Tracé_827" data-name="Tracé 827" d="M265.751,204.74a2.058,2.058,0,0,0-.623,0,3.525,3.525,0,0,1-.551-.036,4.241,4.241,0,0,1-.569-.117,1.819,1.819,0,0,0-.614-.126.252.252,0,0,0-.172.424,1.142,1.142,0,0,0,.6.325,3.917,3.917,0,0,0,.623.154,5.574,5.574,0,0,0,.668.063,1.5,1.5,0,0,0,.722-.09A.33.33,0,0,0,265.751,204.74Z" transform="translate(-252.344 -186.119)" fill="#804e26"/>
                    <path id="Tracé_828" data-name="Tracé 828" d="M254.17,196.905a.411.411,0,0,1-.533-.271.391.391,0,0,1,.108-.316.374.374,0,0,1,.28-.144.254.254,0,0,0,.244-.325,1.572,1.572,0,0,0-1.535-1.309,1.006,1.006,0,0,0-.822.56.734.734,0,0,0-.045.479c.027.09.144.334.271.217.081-.072.054-.181.081-.271a1.112,1.112,0,0,1,.126-.28.543.543,0,0,1,.515-.217,1.04,1.04,0,0,1,.813.713.854.854,0,0,0-.488.984.881.881,0,0,0,1.075.6c.271-.081.154-.515-.117-.424Z" transform="translate(-251.247 -185.156)" fill="#804e26"/>
                  </g>
                </g>
                <path id="Tracé_829" data-name="Tracé 829" d="M269.249,196.039a8.608,8.608,0,0,0-1-.7.98.98,0,0,1-.47-1c.027-.307-.379-.343-.524-.144-.433.614.163,1.373.65,1.725a6.217,6.217,0,0,1,.885.623,2.073,2.073,0,0,1,.5.822,1.962,1.962,0,0,1-.316,1.833,2.843,2.843,0,0,1-1.707.876.212.212,0,0,0,0,.406,2.2,2.2,0,0,0,1.959-.6,2.546,2.546,0,0,0,.849-1.932,2.709,2.709,0,0,0-.831-1.923Z" transform="translate(-252.727 -185.112)" fill="#80410e"/>
              </g>
              <path id="Tracé_830" data-name="Tracé 830" d="M266.441,203.036a4.94,4.94,0,0,1-5.526-2.014.291.291,0,0,1,.488-.316,4.359,4.359,0,0,0,4.858,1.779.29.29,0,0,1,.181.551Z" transform="translate(-252.122 -185.743)" fill="#013025"/>
            </g>
          </g>
          <path id="Tracé_831" data-name="Tracé 831" d="M286.229,224.993q.677,13,2.357,25.915.474,3.616,1.029,7.224c.054.37-.524.388-.578.027q-1.964-12.867-2.926-25.852c-.181-2.429-.325-4.849-.451-7.278a.29.29,0,0,1,.578-.027Z" transform="translate(-204.474 -27.005)" fill="#013025"/>
          <g id="Groupe_452" data-name="Groupe 452" transform="translate(15.057 114.834)">
            <path id="Tracé_832" data-name="Tracé 832" d="M215.326,145.183a4.035,4.035,0,0,1,.253-7.368,5.933,5.933,0,0,1,4.975-4.885,44.019,44.019,0,0,0-3.386,12.849l-1.842-.6Z" transform="translate(-212.486 -132.93)" fill="#bf6d3e"/>
            <path id="Tracé_833" data-name="Tracé 833" d="M217.26,134.268a2.7,2.7,0,0,0-1.4,2.176,3.562,3.562,0,0,1-.542,1.436,5.675,5.675,0,0,1-1.3.9,3.5,3.5,0,0,0-1.571,2.528,7.484,7.484,0,0,0,.7,3.359c.126.352.641.072.515-.271a6.623,6.623,0,0,1-.614-3.187,3.236,3.236,0,0,1,1.824-2.266,2.837,2.837,0,0,0,1.011-.84,3.551,3.551,0,0,0,.47-1.165c.2-.795.325-1.833,1.2-2.158.352-.126.072-.641-.271-.515Z" transform="translate(-212.425 -133.058)" fill="#80410e"/>
          </g>
        </g>
        <g id="Groupe_463" data-name="Groupe 463" transform="translate(268.615 91.082)">
          <path id="Tracé_834" data-name="Tracé 834" d="M376.124,189.3a11.673,11.673,0,0,1,8.145,9.183,6.686,6.686,0,0,0,.768,2.862c.6.876,1.725,1.409,1.959,2.438.253,1.093-.659,2.312-.135,3.314s2.167,1.02,2.682,2.041c.56,1.138-.713,2.555-.2,3.711.47,1.056,1.968,1.029,2.953,1.625a3.182,3.182,0,0,1,1.372,2.736,6.892,6.892,0,0,1-.885,3.043c-2.853,5.644-8.659,9.49-14.854,10.754a31.96,31.96,0,0,1-18.556-2.294,8.9,8.9,0,0,1-3.729-2.456,3.564,3.564,0,0,1-.352-4.181,8.154,8.154,0,0,0,1.056-1.318c.849-1.806-1.842-3.639-1.445-5.589.217-1.056,1.246-1.7,2.131-2.321s1.788-1.562,1.562-2.619c-.108-.515-.488-.948-.614-1.463-.316-1.336,1.084-2.375,1.968-3.431,1.58-1.878,1.671-4.542,1.978-6.971a11.081,11.081,0,0,1,14.195-9.057Z" transform="translate(-335.545 -109.408)" fill="#96432a"/>
          <path id="Tracé_835" data-name="Tracé 835" d="M376.135,191.958a11.006,11.006,0,0,1,7.684,8.659,6.354,6.354,0,0,0,.722,2.7c.56.822,1.634,1.327,1.851,2.3.235,1.038-.623,2.185-.126,3.124.5.957,2.05.957,2.528,1.932.533,1.075-.677,2.411-.19,3.5.442.993,1.851.975,2.79,1.535a2.952,2.952,0,0,1,1.291,2.582,6.52,6.52,0,0,1-.84,2.871c-2.691,5.328-8.163,8.948-14.014,10.149a30.029,30.029,0,0,1-17.5-2.167,8.413,8.413,0,0,1-3.513-2.321,3.373,3.373,0,0,1-.334-3.946,7.772,7.772,0,0,0,1-1.246c.795-1.707-1.734-3.431-1.363-5.273.208-.993,1.174-1.607,2.014-2.185s1.689-1.472,1.472-2.465c-.108-.488-.461-.894-.578-1.382-.3-1.264,1.02-2.239,1.86-3.233,1.49-1.77,1.571-4.28,1.86-6.574a10.453,10.453,0,0,1,13.391-8.542Z" transform="translate(-335.664 -109.67)" fill="#6c301e"/>
          <g id="Groupe_454" data-name="Groupe 454" transform="translate(39.853 73.968)">
            <path id="Tracé_836" data-name="Tracé 836" d="M417.079,207.379a2.19,2.19,0,0,0-1.093-1.824,5.811,5.811,0,0,0-2.095-.7,36.157,36.157,0,0,0-6.465-.641,2.332,2.332,0,0,0-2.3,1.887,12.3,12.3,0,0,0-.244,1.661c-1.472,1.011-1.418,3.287-1.165,5.057-3.422,3.025-9.03,7.314-13.463,8.443s-9.165,2.971-11.3,7.016c-1.481,2.808-1.409,6.14-1.273,9.31.1,2.3.334,4.912,3.368,5.671a6.9,6.9,0,0,0,2.917.018c6.2-1.2,10.167-6.565,15.567-9.815,5.156-3.1,10.4-6.411,13.861-11.332S420.366,212.418,417.079,207.379Z" transform="translate(-377.616 -184.865)" fill="#f5b01a"/>
            <path id="Tracé_837" data-name="Tracé 837" d="M417.621,215.153a7.911,7.911,0,0,0-.542-7.784,2.19,2.19,0,0,0-1.093-1.824,5.811,5.811,0,0,0-2.095-.7,36.156,36.156,0,0,0-6.465-.641,2.332,2.332,0,0,0-2.3,1.887,12.3,12.3,0,0,0-.244,1.661c-1.472,1.011-1.418,3.287-1.165,5.057-3.422,3.025-9.03,7.314-13.463,8.443s-9.165,2.971-11.3,7.016c-1.481,2.808-1.409,6.14-1.273,9.31.018.515.054,1.047.117,1.571,14.574-4.813,29.446-12.389,39.821-23.983Z" transform="translate(-377.616 -184.864)" fill="#f5b01a"/>
            <path id="Tracé_838" data-name="Tracé 838" d="M377.82,240.313c.226,1.815.894,3.522,3.251,4.109a6.9,6.9,0,0,0,2.917.018c6.2-1.2,10.167-6.565,15.567-9.815,5.156-3.1,10.4-6.411,13.861-11.332a36.886,36.886,0,0,0,4.226-6.962C407.266,227.924,392.394,235.5,377.82,240.313Z" transform="translate(-377.636 -186.042)" fill="#a86114"/>
            <path id="Tracé_839" data-name="Tracé 839" d="M409.294,183.187l-.524,20.281a2.828,2.828,0,0,0,2.582,2.908,8.494,8.494,0,0,0,4.343-.822,2.824,2.824,0,0,0,1.544-2.962l-2.953-19.766a17.748,17.748,0,0,0-4.984.37Z" transform="translate(-380.639 -182.787)" fill="#ffc9b9"/>
            <path id="Tracé_840" data-name="Tracé 840" d="M413.364,218.153a8.76,8.76,0,0,1-5.806-3.585c-.217-.307-.641.09-.424.388a9.386,9.386,0,0,0,6.212,3.774c.37.054.388-.524.027-.578Z" transform="translate(-380.475 -185.86)" fill="#a86114"/>
            <path id="Tracé_841" data-name="Tracé 841" d="M415.113,210.529a9.788,9.788,0,0,1-5.011-1.363c-.316-.19-.632.3-.316.488a10.247,10.247,0,0,0,5.3,1.454C415.457,211.107,415.484,210.529,415.113,210.529Z" transform="translate(-380.725 -185.342)" fill="#a86114"/>
          </g>
          <path id="Tracé_842" data-name="Tracé 842" d="M374.311,220.9a19.033,19.033,0,0,0-11.793.677c-1.743.686-3.612,2.014-3.549,3.892.063,1.625,1.571,2.79,3,3.558a25.279,25.279,0,0,0,17.481,2.357c2.853-.659,5.689-3.016,3.133-5.788a17.723,17.723,0,0,0-8.271-4.686Z" transform="translate(-335.953 -112.456)" fill="#f5b01a"/>
          <path id="Tracé_843" data-name="Tracé 843" d="M359.4,228.79c-4.136.659-7.486,4.027-9.915,7.72s-4.235,7.874-6.9,11.368c-2.194,2.871-4.93,5.246-6.89,8.316s-3.034,7.215-1.445,10.529c1.517,3.151,5.039,4.605,8.307,4.65a7.923,7.923,0,0,0,6.474-2.628,8.317,8.317,0,0,0,1.535-5.4,10.146,10.146,0,0,0-.1-1.165,7.259,7.259,0,0,1,2.068-5.951,13.354,13.354,0,0,0,1.282-1.544,40.387,40.387,0,0,0,6.447-12.244c1.282-4.515,1.354-9.58-.867-13.644Z" transform="translate(-333.48 -113.282)" fill="#f5b01a"/>
          <path id="Tracé_844" data-name="Tracé 844" d="M359.893,243.618c.126-.388.262-.777.379-1.174,1.282-4.515,1.354-9.58-.867-13.644-4.136.659-7.486,4.027-9.915,7.72s-4.235,7.874-6.9,11.368c-2.194,2.871-4.93,5.246-6.89,8.316s-3.034,7.215-1.445,10.529c1.517,3.151,5.039,4.605,8.307,4.65a7.923,7.923,0,0,0,6.474-2.628,8.317,8.317,0,0,0,1.535-5.4c-.018-.388-.045-.777-.1-1.165-.009-.09-.009-.172-.018-.262a27.828,27.828,0,0,0-2.89-4.849,57.93,57.93,0,0,0,12.326-13.463Z" transform="translate(-333.481 -113.283)" fill="#f5b01a"/>
          <path id="Tracé_845" data-name="Tracé 845" d="M349.07,258.674a27.5,27.5,0,0,1,2.89,4.849,7.234,7.234,0,0,1,2.086-5.689,13.356,13.356,0,0,0,1.282-1.544,42.9,42.9,0,0,0,6.077-11.07,57.749,57.749,0,0,1-12.326,13.463Z" transform="translate(-334.993 -114.877)" fill="#a86114"/>
          <path id="Tracé_846" data-name="Tracé 846" d="M378.912,299.36c2.23-2.7,4.1-5.481,4.425-7.522l-29.843-5.508c-.93,2.429-2.321,4.894-3.043,7.386,8.985,3.359,19.026,5.761,28.452,5.644Z" transform="translate(-335.127 -118.866)" fill="#013025"/>
          <g id="Groupe_457" data-name="Groupe 457" transform="translate(11.695 171.04)">
            <g id="Groupe_455" data-name="Groupe 455" transform="translate(26.273 118.803)">
              <path id="Tracé_847" data-name="Tracé 847" d="M377.047,422.032l6.194-.172c1.725,1.8,12.109,4.054,12.714,6.465H375.62a26.569,26.569,0,0,1,1.427-6.3Z" transform="translate(-375.537 -421.86)" fill="#fff"/>
              <path id="Tracé_848" data-name="Tracé 848" d="M395.937,429.02c.054.235.117.461.163.7a.591.591,0,0,1-.578.713h-19.4a.586.586,0,0,1-.587-.632c.018-.262.045-.515.072-.777h20.335Z" transform="translate(-375.528 -422.555)" fill="#01614d"/>
            </g>
            <path id="Tracé_849" data-name="Tracé 849" d="M391.541,290.29c-8.985,3.359-13.138,2.05-22.565,1.932-.822,5.318,2.474,16.669,2.474,16.669l.379,8.316h23.026c-.09-9.427-1-18.872-3.314-26.908Z" transform="translate(-348.607 -290.29)" fill="#013025"/>
            <path id="Tracé_850" data-name="Tracé 850" d="M372.149,320.09l.262,3.946,22.511.262a26.074,26.074,0,0,0,.244-4.208H372.14Z" transform="translate(-348.927 -293.182)" fill="#006cb0"/>
            <g id="Groupe_456" data-name="Groupe 456" transform="translate(6.542 118.803)">
              <path id="Tracé_851" data-name="Tracé 851" d="M365.237,422.032l-6.194-.172c-1.725,1.8-4.578,4.054-5.183,6.465h12.8a26.567,26.567,0,0,0-1.427-6.3Z" transform="translate(-353.695 -421.86)" fill="#fff"/>
              <path id="Tracé_852" data-name="Tracé 852" d="M353.851,429.02c-.054.235-.117.461-.163.7a.591.591,0,0,0,.578.713h11.865a.586.586,0,0,0,.587-.632c-.018-.262-.045-.515-.072-.777Z" transform="translate(-353.677 -422.555)" fill="#01614d"/>
            </g>
            <path id="Tracé_853" data-name="Tracé 853" d="M369.674,309.3a98.886,98.886,0,0,0,8.858-9.147c-9.427.117-19.468-2.275-28.453-5.644a98.147,98.147,0,0,0-3.54,23.1h22.755l.379-8.316Z" transform="translate(-346.443 -290.699)" fill="#01614d"/>
            <path id="Tracé_854" data-name="Tracé 854" d="M346.539,320.09a19.284,19.284,0,0,0,.018,4.208h22.737V320.09H346.539Z" transform="translate(-346.432 -293.182)" fill="#0081c9"/>
          </g>
          <path id="Tracé_855" data-name="Tracé 855" d="M387.26,263.665c.036-11.043,1.2-20.01,1.643-31.044a3.287,3.287,0,0,0-1.382-3.133c-15.775-8.054-27.441-1.526-30.006.334a3.843,3.843,0,0,0-1.382,4.253c2.871,9.165,2.628,17.635,1.1,27.116-1.192,7.4-9.165,16.1-7.161,25.653,12.7,5.689,27.929,5.129,41.862,2.474,3.7-6.637-4.7-19.621-4.668-25.653Z" transform="translate(-335.059 -112.969)" fill="#f5b01a"/>
          <g id="Groupe_458" data-name="Groupe 458" transform="translate(33.518 98.857)">
            <path id="Tracé_856" data-name="Tracé 856" d="M370.6,210.35a101.411,101.411,0,0,1,.786,13.842,3.137,3.137,0,0,0,.885,2.33,5.406,5.406,0,0,0,5.12,1.391c.867-.262,1.391-1.49,1.228-2.781-.388-2.962-.641-5.788-.813-8.876A14.46,14.46,0,0,0,370.6,210.35Z" transform="translate(-370.6 -210.35)" fill="#ffc9b9"/>
            <path id="Tracé_857" data-name="Tracé 857" d="M377.806,216.255a14.46,14.46,0,0,0-7.206-5.905c.154,1.21.28,2.42.388,3.63,1.86,3.7,4.506,7.386,7.386,9.075-.253-2.23-.442-4.443-.569-6.8Z" transform="translate(-370.6 -210.35)" fill="#ffab90"/>
          </g>
          <path id="Tracé_858" data-name="Tracé 858" d="M387.313,294.249a52.267,52.267,0,0,1-12.985,2.032,53.535,53.535,0,0,1-13.084-1.21,52.094,52.094,0,0,1-7.133-2.113c-.352-.135-.524.424-.181.551a53.086,53.086,0,0,0,12.876,3.052,54.187,54.187,0,0,0,13.3-.19,52.305,52.305,0,0,0,7.341-1.562c.352-.1.235-.668-.126-.569Z" transform="translate(-335.446 -119.507)" fill="#a86114"/>
          <g id="Groupe_460" data-name="Groupe 460" transform="translate(28.646 85.733)">
            <g id="Groupe_459" data-name="Groupe 459">
              <path id="Tracé_859" data-name="Tracé 859" d="M382.384,200.371c1.616,7.124-.235,15.423-2.122,15.712-6.24.966-10.384-4.858-10.42-4.93a3.557,3.557,0,0,1-1.445.686,2.676,2.676,0,0,1-1.806-.731c-.768-.713-1.671-1.887-1.3-3.007a2.127,2.127,0,0,1,3.494-.795c1.9-3.684.253-5.6.181-8.271a16.061,16.061,0,0,1,11.088-3.169c.668.045,2.176,3.856,2.33,4.515Z" transform="translate(-365.205 -195.816)" fill="#ffc9b9"/>
              <path id="Tracé_860" data-name="Tracé 860" d="M376.118,204.371a.519.519,0,0,0-.172-.172.525.525,0,0,0-.226-.081.6.6,0,0,0-.253,0c-.054.018-.108.045-.163.063a.625.625,0,0,0-.235.226c-.018.045-.045.1-.063.144a.528.528,0,0,0,0,.334l.018.063a.525.525,0,0,0,.108.226.519.519,0,0,0,.172.172.525.525,0,0,0,.226.081.6.6,0,0,0,.253,0l.163-.063a.625.625,0,0,0,.235-.226c.018-.045.045-.1.063-.144a.529.529,0,0,0,0-.334l-.018-.063A.525.525,0,0,0,376.118,204.371Z" transform="translate(-366.154 -196.62)" fill="#013025"/>
              <path id="Tracé_861" data-name="Tracé 861" d="M382.858,203.181a.519.519,0,0,0-.172-.172.525.525,0,0,0-.226-.081.6.6,0,0,0-.253,0c-.054.018-.108.045-.163.063a.625.625,0,0,0-.235.226c-.018.045-.045.1-.063.144a.528.528,0,0,0,0,.334l.018.063a.525.525,0,0,0,.108.226.519.519,0,0,0,.172.172.525.525,0,0,0,.226.081.6.6,0,0,0,.253,0l.163-.063a.625.625,0,0,0,.235-.226c.018-.045.045-.1.063-.144a.528.528,0,0,0,0-.334l-.018-.063A.525.525,0,0,0,382.858,203.181Z" transform="translate(-366.808 -196.504)" fill="#013025"/>
              <path id="Tracé_862" data-name="Tracé 862" d="M368.453,211.1a.4.4,0,0,1-.569-.135.351.351,0,0,1,.036-.325.381.381,0,0,1,.235-.208.254.254,0,0,0,.163-.37,1.555,1.555,0,0,0-1.779-.894.974.974,0,0,0-.65.731.764.764,0,0,0,.072.47c.045.081.217.289.316.144.063-.09.009-.181.018-.28a.867.867,0,0,1,.054-.3.553.553,0,0,1,.442-.334,1.041,1.041,0,0,1,.948.488.824.824,0,0,0-.235,1.047.87.87,0,0,0,1.174.334c.244-.144.027-.533-.208-.379Z" transform="translate(-365.27 -197.104)" fill="#ffab90"/>
            </g>
            <path id="Tracé_863" data-name="Tracé 863" d="M376.831,200.25a7.073,7.073,0,0,0-3.6,1.4c-.3.226.09.659.388.433a6.532,6.532,0,0,1,3.332-1.264.29.29,0,0,0-.117-.569Z" transform="translate(-365.973 -196.246)" fill="#6c301e"/>
            <path id="Tracé_864" data-name="Tracé 864" d="M383.46,200.33a2.67,2.67,0,0,0-2.375-.686.3.3,0,0,0-.226.343.29.29,0,0,0,.343.226c.09-.018.181-.036.271-.045h.2a1.378,1.378,0,0,1,.271.027.2.2,0,0,1,.072.009h.027c.009,0,.045.009.054.009a.212.212,0,0,1,.072.018l.244.081c.036.018.081.036.117.054h.018a.226.226,0,0,1,.063.036l.217.135a1.019,1.019,0,0,1,.117.09.125.125,0,0,0,.036.027l.036.036a.288.288,0,0,0,.433-.379Z" transform="translate(-366.723 -196.182)" fill="#6c301e"/>
            <path id="Tracé_865" data-name="Tracé 865" d="M381.191,214.259c-.632.09-1.264.181-1.9.28a.285.285,0,0,0-.226.343.289.289,0,0,0,.343.226c.632-.09,1.264-.181,1.9-.28a.285.285,0,0,0,.226-.343A.29.29,0,0,0,381.191,214.259Z" transform="translate(-366.55 -197.605)" fill="#ffab90"/>
            <path id="Tracé_866" data-name="Tracé 866" d="M382.1,207.972a2.231,2.231,0,0,0-.876-.7,1.223,1.223,0,0,1-.677-.614.289.289,0,0,0-.515.262c.235.641.948.758,1.418,1.165a.485.485,0,0,1,.172.641c-.172.289-.506.451-.731.7a.288.288,0,0,0,.379.433,5.389,5.389,0,0,0,.831-.8.987.987,0,0,0,.009-1.075Z" transform="translate(-366.641 -196.852)" fill="#ffab90"/>
            <path id="Tracé_867" data-name="Tracé 867" d="M380.975,212.443a.286.286,0,0,0-.388-.126,4.285,4.285,0,0,1-2.628.117.291.291,0,1,0-.19.551,4.862,4.862,0,0,0,3.079-.144.286.286,0,0,0,.126-.388Z" transform="translate(-366.405 -197.414)" fill="#013025"/>
          </g>
          <g id="Groupe_461" data-name="Groupe 461" transform="translate(24.802 157.538)">
            <path id="Tracé_868" data-name="Tracé 868" d="M366.476,276.212a13.372,13.372,0,0,1-5.418,8.714c-.307.217.09.641.388.424a13.867,13.867,0,0,0,5.607-9.111c.054-.37-.524-.388-.578-.027Z" transform="translate(-360.947 -275.397)" fill="#a86114"/>
            <path id="Tracé_869" data-name="Tracé 869" d="M385.1,275.34l-17.788.515c-.37.009-.4.587-.027.578l17.788-.515C385.44,275.909,385.467,275.331,385.1,275.34Z" transform="translate(-361.536 -275.337)" fill="#a86114"/>
            <path id="Tracé_870" data-name="Tracé 870" d="M390.592,282.672a7.857,7.857,0,0,1-3.386-7.043.289.289,0,0,0-.578-.027,8.45,8.45,0,0,0,3.648,7.549c.307.208.623-.28.316-.488Z" transform="translate(-363.437 -275.337)" fill="#a86114"/>
          </g>
          <path id="Tracé_871" data-name="Tracé 871" d="M363.951,277.578,345.982,263.97a8.512,8.512,0,0,0-4.072,7.9l19.441,9.969A17.534,17.534,0,0,0,363.951,277.578Z" transform="translate(-334.297 -116.696)" fill="#ffc9b9"/>
          <path id="Tracé_872" data-name="Tracé 872" d="M346.049,263.737a8.9,8.9,0,0,0-4.966,9.021c.045.37.614.235.569-.126a8.311,8.311,0,0,1,4.668-8.38c.334-.154.072-.668-.271-.515Z" transform="translate(-334.212 -116.671)" fill="#a86114"/>
          <path id="Tracé_873" data-name="Tracé 873" d="M349.19,263.447a5.649,5.649,0,0,0-6.357-1.6c-.343.135-.072.65.271.515a5.062,5.062,0,0,1,5.662,1.472c.235.289.668-.108.424-.388Z" transform="translate(-334.372 -116.453)" fill="#a86114"/>
          <path id="Tracé_874" data-name="Tracé 874" d="M359.131,243.6c-.027-.37-.6-.4-.578-.027a86.587,86.587,0,0,1-.433,16.615c-.045.37.533.4.578.027A86.59,86.59,0,0,0,359.131,243.6Z" transform="translate(-335.871 -114.691)" fill="#a86114"/>
          <path id="Tracé_875" data-name="Tracé 875" d="M379.655,225.894c-.117-.352-.686-.226-.569.126a4.138,4.138,0,0,1-1.047,3.747,7.52,7.52,0,0,1-1.246,1.427,1.31,1.31,0,0,1-1.68-.027c-.506-.352-.957-.786-1.463-1.156a17.432,17.432,0,0,0-1.625-1.075,17.726,17.726,0,0,0-3.513-1.562c-1.255-.406-2.917-.9-3.124-2.438-.054-.37-.614-.235-.569.126.19,1.391,1.472,2.158,2.682,2.582a24.641,24.641,0,0,1,4.154,1.743,18.984,18.984,0,0,1,1.833,1.219,10.422,10.422,0,0,0,1.689,1.264c1.345.668,2.3-.479,3.07-1.436,1.011-1.273,1.968-2.871,1.409-4.551Z" transform="translate(-336.521 -112.887)" fill="#a86114"/>
          <path id="Tracé_876" data-name="Tracé 876" d="M370.817,233.918c-.117-.352-.686-.226-.569.126a22.91,22.91,0,0,1,1,11.2c-.054.37.524.388.578.027a23.307,23.307,0,0,0-1.02-11.35Z" transform="translate(-337.046 -113.76)" fill="#fff"/>
          <path id="Tracé_877" data-name="Tracé 877" d="M382.047,233c-.108-.352-.677-.226-.569.126a25.289,25.289,0,0,1,.641,12.84c-.072.361.479.542.551.181A25.877,25.877,0,0,0,382.038,233Z" transform="translate(-338.136 -113.67)" fill="#fff"/>
          <path id="Tracé_878" data-name="Tracé 878" d="M358.458,412.438l-3.549-19.287c-1.2-6.537-1.734-20.145-1.58-26.8l.163-7.025L347.74,324.76h20.506l-5.535,35.622.74,3.558c1.625,7.829,2.275,22.782,1.941,30.764l-.749,17.906-6.194-.172Z" transform="translate(-334.864 -122.595)" fill="#ffc9b9"/>
          <path id="Tracé_879" data-name="Tracé 879" d="M395.055,324.723,383.028,412.41h-6.194l-1.047-23.7c-.3-6.808.7-20.579,2.944-27.017h0l-5.309-37.22Z" transform="translate(-337.356 -122.566)" fill="#ffc9b9"/>
          <path id="Tracé_880" data-name="Tracé 880" d="M368.256,324.75H347.75l.307,1.86h19.91Z" transform="translate(-334.865 -122.594)" fill="#ffab90"/>
          <path id="Tracé_881" data-name="Tracé 881" d="M362.754,360.572,368,326.81H348.09l5.445,32.705-.163,7.025c-.154,6.646.379,20.254,1.58,26.8l3.549,19.287,6.194.172.749-17.906c.334-7.991-.316-22.944-1.941-30.764l-.74-3.558Z" transform="translate(-334.898 -122.794)" fill="#ffc9b9"/>
          <path id="Tracé_882" data-name="Tracé 882" d="M395.054,324.724l-21.644-.244.307,2.1h21.075Z" transform="translate(-337.355 -122.567)" fill="#ffab90"/>
          <path id="Tracé_883" data-name="Tracé 883" d="M373.75,326.81l5.011,35.107h0c-2.248,6.438-3.251,20.2-2.944,27.017l1.047,23.7h6.194l11.775-85.818H373.759Z" transform="translate(-337.388 -122.794)" fill="#ffc9b9"/>
          <path id="Tracé_884" data-name="Tracé 884" d="M414.409,183.1v-.054l3.522-6.6-3.783-2.871-3.747,1.436-.668,5.508a8.69,8.69,0,0,0-.361,2.285l5.03.3Z" transform="translate(-340.844 -107.924)" fill="#ffc9b9"/>
          <path id="Tracé_885" data-name="Tracé 885" d="M409.671,100.87l13.03,26.394,29.13,4.235-21.084,20.543,4.984,29.012-26.06-13.7-26.051,13.7,4.975-29.012L367.52,131.5l29.13-4.235Z" transform="translate(-336.783 -100.87)" fill="#f5b01a"/>
          <path id="Tracé_886" data-name="Tracé 886" d="M379.159,132.919l-11.639,1.689L388.6,155.15l-4.975,29.012,26.051-13.7,26.051,13.7L431.5,159.539c-20.272-.867-40.408-10.339-52.345-26.629Z" transform="translate(-336.783 -103.979)" fill="#960"/>
          <g id="Groupe_462" data-name="Groupe 462" transform="translate(66.594 64.707)">
            <path id="Tracé_887" data-name="Tracé 887" d="M410.228,182.228a3.564,3.564,0,0,0,1.291-2.98,3.411,3.411,0,0,0-1.445-2.853,4.211,4.211,0,0,0-2.844-3.865,45.935,45.935,0,0,1,1.932,10.167l1.056-.47Z" transform="translate(-407.23 -172.53)" fill="#ffc9b9"/>
            <path id="Tracé_888" data-name="Tracé 888" d="M409.255,173.589c.515.271.686,1.047.8,1.725a3.59,3.59,0,0,0,.307,1.138,3.294,3.294,0,0,0,.749.713,3.082,3.082,0,0,1,.9,2,7.921,7.921,0,0,1-.4,2.655c-.072.28-.37.063-.289-.217a6.955,6.955,0,0,0,.352-2.519,2.552,2.552,0,0,0-1.038-1.8,1.874,1.874,0,0,1-.578-.659,3.646,3.646,0,0,1-.271-.921c-.108-.623-.181-1.454-.686-1.707-.2-.1-.045-.506.154-.406Z" transform="translate(-407.403 -172.632)" fill="#ffab90"/>
          </g>
          <path id="Tracé_889" data-name="Tracé 889" d="M377.486,196.16a8.585,8.585,0,0,1-2.122,1.625,4.387,4.387,0,0,0-1.815,1.815,7.869,7.869,0,0,0-.063,2.646,4.055,4.055,0,0,1-1.833,3.079,6.429,6.429,0,0,1-4.081,1.029c-.154-2.781-.271-5.716,1.391-8.172a9.533,9.533,0,0,1,5.03-3.522c1.779-.569,5.562-1.056,3.513,1.49Z" transform="translate(-336.78 -109.927)" fill="#6c301e"/>
        </g>
        <g id="Groupe_477" data-name="Groupe 477" transform="translate(29.607 74.721)">
          <path id="Tracé_890" data-name="Tracé 890" d="M151.268,205.05c-.894,1.147-1.761,2.239-2.546,3.187-5.156,1.093-6.763,2.7-8.921,7.513l3.765,18.357c7.486-2.6,13.192-9.978,18.177-16.145.424-.524.849-1.047,1.255-1.562a8.958,8.958,0,0,1-1.183-.135A13.36,13.36,0,0,1,151.268,205.05Z" transform="translate(-75.679 -94.617)" fill="#01614d"/>
          <path id="Tracé_891" data-name="Tracé 891" d="M169.485,197.888c-.795-2.465-2.6-5.1-5.192-5.039a6.353,6.353,0,0,0-3.738,1.788c-2.465,2.059-5.427,5.878-8.054,9.237a13.349,13.349,0,0,0,10.547,11.215,8.958,8.958,0,0,0,1.183.135c4.361-5.508,7.468-10.438,5.255-17.337Z" transform="translate(-76.911 -93.433)" fill="#ffab91"/>
          <path id="Tracé_892" data-name="Tracé 892" d="M110.75,216.441A5.55,5.55,0,0,0,109,212.477a9.981,9.981,0,0,0-3.838-2.194,17.242,17.242,0,0,0-9.5-.253,185.952,185.952,0,0,1-15.883-12.1c-3.133,2.321-6.4,7.233-8.858,10.258,9.617,11.784,22.168,19.576,36.444,24.823l3.377-16.578Z" transform="translate(-68.995 -93.926)" fill="#ffab91"/>
          <path id="Tracé_893" data-name="Tracé 893" d="M112.279,217.365a5.55,5.55,0,0,0-1.752-3.964,9.981,9.981,0,0,0-3.838-2.194,17.242,17.242,0,0,0-9.5-.253c-1.67-1.138-3.314-2.312-4.948-3.5-3.377,4.316-4.93,9.508-5.562,14.971a93.158,93.158,0,0,0,22.213,11.513l3.377-16.578Z" transform="translate(-70.524 -94.85)" fill="#01614d"/>
          <path id="Tracé_894" data-name="Tracé 894" d="M106.175,233.981c-6.357-4.957-12.452-10.276-18.61-15.441a40.915,40.915,0,0,0-.885,4.975,90.59,90.59,0,0,0,19.5,10.465Z" transform="translate(-70.524 -95.926)" fill="#013025"/>
          <g id="Groupe_468" data-name="Groupe 468" transform="translate(13.395 188.007)">
            <g id="Groupe_467" data-name="Groupe 467">
              <g id="Groupe_464" data-name="Groupe 464" transform="translate(16.62)">
                <path id="Tracé_895" data-name="Tracé 895" d="M106.834,290.969c19.766,2.366,19.477,14.682,19.477,14.682l-7.982,51.343-5.707,44.733h-9.427a581.6,581.6,0,0,1,3.639-110.767Z" transform="translate(-102.029 -290.96)" fill="#a86114"/>
                <path id="Tracé_896" data-name="Tracé 896" d="M121.984,305.214s-8.795-6.14-9.824-11.5l33.012,1.282S150.69,364.331,150.554,402H141.2l-19.215-96.789Z" transform="translate(-103.012 -291.227)" fill="#f5b01a"/>
                <path id="Tracé_897" data-name="Tracé 897" d="M152.971,413.64c0,1.4-.009,2.763-.027,4.072h-7.459l-.415-4.072h7.91Z" transform="translate(-106.205 -302.864)" fill="#ffab91"/>
                <path id="Tracé_898" data-name="Tracé 898" d="M112.051,413.64c0,1.4-.009,2.763-.027,4.072h-7.459l-.415-4.072h7.91Z" transform="translate(-102.235 -302.864)" fill="#ffab91"/>
                <path id="Tracé_899" data-name="Tracé 899" d="M115.116,298.835c-1.743-1.905-3.278-4.09-3.666-6.149l33.365-1.716s.271,3.9.4,5.526a84.316,84.316,0,0,1-30.087,2.339Z" transform="translate(-102.943 -290.961)" fill="#a86114"/>
              </g>
              <g id="Groupe_465" data-name="Groupe 465" transform="translate(53.352 113.973)">
                <path id="Tracé_900" data-name="Tracé 900" d="M144.844,417.442l8.732-.262a22.694,22.694,0,0,1,5.02,9.942H142.83a43.528,43.528,0,0,1,2.014-9.68Z" transform="translate(-142.719 -417.18)" fill="#01614d"/>
                <path id="Tracé_901" data-name="Tracé 901" d="M158.584,428.19c.081.352.163.713.226,1.065a.9.9,0,0,1-.813,1.093H143.54a.876.876,0,0,1-.831-.966c.027-.4.063-.795.1-1.192h15.766Z" transform="translate(-142.707 -418.248)" fill="#a86114"/>
              </g>
              <g id="Groupe_466" data-name="Groupe 466" transform="translate(0 113.973)">
                <path id="Tracé_902" data-name="Tracé 902" d="M110.564,417.442l-8.732-.262c-2.438,2.754-17.093,6.23-17.942,9.942h28.687A43.528,43.528,0,0,0,110.564,417.442Z" transform="translate(-83.649 -417.18)" fill="#01614d"/>
                <path id="Tracé_903" data-name="Tracé 903" d="M83.864,428.19c-.081.352-.163.713-.226,1.065a.9.9,0,0,0,.813,1.093h27.378a.876.876,0,0,0,.831-.966c-.027-.4-.063-.795-.1-1.192H83.873Z" transform="translate(-83.623 -418.248)" fill="#a86114"/>
              </g>
            </g>
            <path id="Tracé_904" data-name="Tracé 904" d="M146.157,366.867c1.084-2.023,2.212-4,3.115-6.14a62.613,62.613,0,0,0,2.212-6.664c.081-.28.442-.163.4.117a32.754,32.754,0,0,1-2.059,6.808,28.665,28.665,0,0,1-3.278,6.2C146.364,367.436,146.021,367.129,146.157,366.867Z" transform="translate(-89.688 -297.068)" fill="#a86114"/>
          </g>
          <path id="Tracé_905" data-name="Tracé 905" d="M107.964,220.125a7.041,7.041,0,0,1,4.343-6.113,38.19,38.19,0,0,1,17.03-2.592,64.708,64.708,0,0,1,15.558,3.16,7.062,7.062,0,0,1,4.786,7.847,306.434,306.434,0,0,0-3.612,59.74c.054,1.291.172,3.151-1.065,3.54-11.35,3.54-27.541,4.127-38.34,1.246-2.682-.713-.569-3.187-.578-5.96-.054-19.847.867-41.239,1.887-60.878Z" transform="translate(-72.332 -95.227)" fill="#01614d"/>
          <g id="Groupe_470" data-name="Groupe 470" transform="translate(42.54 85.826)">
            <path id="Tracé_906" data-name="Tracé 906" d="M134.842,197.479a65.871,65.871,0,0,0,.307,13.274,2.424,2.424,0,0,1-1,2.285,9.886,9.886,0,0,1-7.043,1.68,2.4,2.4,0,0,1-2-2.573,80.833,80.833,0,0,0,.244-8.533,19.166,19.166,0,0,1,9.5-6.14Z" transform="translate(-116.791 -179.708)" fill="#ffab91"/>
            <path id="Tracé_907" data-name="Tracé 907" d="M125.343,203.62a19.167,19.167,0,0,1,9.5-6.14q-.217,2.831-.19,5.662c-1.689,4.605-4.732,9-8.84,10.917a2.445,2.445,0,0,1-.713-1.914,80.835,80.835,0,0,0,.244-8.533Z" transform="translate(-116.791 -179.709)" fill="#ff8a65"/>
            <path id="Tracé_908" data-name="Tracé 908" d="M134.808,194.478c.515-1.923,1.02-3.838,1.535-5.761a6.869,6.869,0,0,0,.334-3.07,2.364,2.364,0,0,0-2.059-2.014,13.5,13.5,0,0,0-12.587-5.743,7.161,7.161,0,0,0-4.515,2.014,7.889,7.889,0,0,0-1.616,5.463c.018,2.321,1.056,2.564,2.637,4.253,1.508,1.607,3.215,4.461,5.382,4.831a32.9,32.9,0,0,0,10.89.018Z" transform="translate(-115.899 -177.799)" fill="#013025"/>
            <path id="Tracé_909" data-name="Tracé 909" d="M134.409,194.676q.691-2.628,1.391-5.255a6.316,6.316,0,0,0,.307-2.8,2.135,2.135,0,0,0-1.869-1.833,12.186,12.186,0,0,0-11.4-5.237,6.49,6.49,0,0,0-4.09,1.833,7.241,7.241,0,0,0-1.463,4.984c.018,2.113.957,2.339,2.393,3.883,1.373,1.463,2.908,4.072,4.876,4.406a29.626,29.626,0,0,0,9.86.018Z" transform="translate(-116.033 -177.961)" fill="#013025"/>
            <g id="Groupe_469" data-name="Groupe 469" transform="translate(2.256 6.334)">
              <path id="Tracé_910" data-name="Tracé 910" d="M118.553,189.045c-.822,6.176,1.716,17.1,5.129,17.229,7.287.262,8.84-4.316,10.068-8.8a1.32,1.32,0,0,0,1.038.334,2.567,2.567,0,0,0,1.517-1.084c.56-.831,1.129-2.14.524-3.088a1.67,1.67,0,0,0-3-.036,17.337,17.337,0,0,0-1.472-6.456,2.393,2.393,0,0,0-1.445-1.436,17.43,17.43,0,0,0-10.52-.154,2.065,2.065,0,0,0-1.336,1.354,14.855,14.855,0,0,0-.5,2.14Z" transform="translate(-118.398 -184.813)" fill="#ffab91"/>
              <path id="Tracé_911" data-name="Tracé 911" d="M130.688,200.1a15.112,15.112,0,0,0-10.908,1.165c.957,3.314,2.393,5.869,4.036,5.933,6.944.253,8.687-3.892,9.888-8.172l.479-4.732c-1.165,1.941-2.33,3.874-3.494,5.815Z" transform="translate(-118.532 -185.733)" fill="#013025"/>
              <path id="Tracé_912" data-name="Tracé 912" d="M138.451,194.478a1.722,1.722,0,0,0-2.592-.569c-.063.1-.126.208-.181.307l-.479,4.732c.063-.208.117-.415.172-.632a1.32,1.32,0,0,0,1.038.334,2.567,2.567,0,0,0,1.517-1.084C138.487,196.735,139.056,195.426,138.451,194.478Z" transform="translate(-120.028 -185.659)" fill="#ffab91"/>
              <path id="Tracé_913" data-name="Tracé 913" d="M133.823,193.6a17.337,17.337,0,0,0-1.472-6.456,2.393,2.393,0,0,0-1.445-1.436,17.43,17.43,0,0,0-10.52-.154,2.046,2.046,0,0,0-1.336,1.354,14.856,14.856,0,0,0-.5,2.14,30.493,30.493,0,0,0,1.093,11.3,15.117,15.117,0,0,1,10.908-1.165c1.165-1.941,2.33-3.874,3.494-5.815v-.117a2.142,2.142,0,0,0-.217.352Z" transform="translate(-118.398 -184.813)" fill="#ffab91"/>
              <path id="Tracé_914" data-name="Tracé 914" d="M135.74,194.13v.117a2.616,2.616,0,0,1,.172-.307,1.161,1.161,0,0,0-.172.19Z" transform="translate(-120.08 -185.699)" fill="#ffab91"/>
              <path id="Tracé_915" data-name="Tracé 915" d="M125.867,189.862c.993-1.264,3.729-.388,4.732.415.181.144.406.334.379.6a.309.309,0,0,1-.226.289c-.307.09-.6-.172-.858-.307a4.284,4.284,0,0,0-1.075-.4,4.385,4.385,0,0,0-1.418-.081,5.385,5.385,0,0,1-1.354.19c-.361-.054-.361-.5-.19-.722Z" transform="translate(-119.111 -185.241)" fill="#013025"/>
              <path id="Tracé_916" data-name="Tracé 916" d="M127.485,192.329a.468.468,0,0,1,.126-.2.419.419,0,0,1,.2-.126.527.527,0,0,1,.235-.054c.054,0,.108.018.163.018a.679.679,0,0,1,.271.154,1.216,1.216,0,0,0,.1.126.6.6,0,0,1,.081.307v.063a.527.527,0,0,1-.054.235.468.468,0,0,1-.126.2.419.419,0,0,1-.2.126.527.527,0,0,1-.235.054l-.163-.018a.679.679,0,0,1-.271-.153l-.09-.126a.6.6,0,0,1-.081-.307v-.063a.527.527,0,0,1,.054-.235Z" transform="translate(-119.275 -185.506)" fill="#013025"/>
              <path id="Tracé_917" data-name="Tracé 917" d="M120.133,192.749a.467.467,0,0,1,.126-.2.419.419,0,0,1,.2-.126.527.527,0,0,1,.235-.054c.054,0,.108.018.163.018a.68.68,0,0,1,.271.154c.027.045.063.081.09.126a.6.6,0,0,1,.081.307v.063a.527.527,0,0,1-.054.235.467.467,0,0,1-.126.2.419.419,0,0,1-.2.126.527.527,0,0,1-.235.054l-.163-.018a.68.68,0,0,1-.271-.154l-.1-.126a.6.6,0,0,1-.081-.307v-.063a.527.527,0,0,1,.054-.235Z" transform="translate(-118.56 -185.546)" fill="#013025"/>
              <path id="Tracé_918" data-name="Tracé 918" d="M118.8,190.79a1.818,1.818,0,0,1,1.228-.822,2.865,2.865,0,0,1,1.436-.027.456.456,0,0,1,.325.5c-.045.37-.361.379-.65.388a2.89,2.89,0,0,0-1.138.208c-.244.108-1.535.749-1.273-.063a1.075,1.075,0,0,1,.072-.181Z" transform="translate(-118.426 -185.303)" fill="#013025"/>
              <path id="Tracé_919" data-name="Tracé 919" d="M136,196.86a.4.4,0,0,0,.506-.253.374.374,0,0,0-.108-.3.361.361,0,0,0-.271-.135.245.245,0,0,1-.235-.307,1.492,1.492,0,0,1,1.445-1.237.938.938,0,0,1,.777.533.649.649,0,0,1,.036.451c-.018.09-.135.316-.262.2-.072-.063-.054-.172-.072-.253a.971.971,0,0,0-.117-.262.51.51,0,0,0-.488-.208.982.982,0,0,0-.768.668.8.8,0,0,1,.461.921.84.84,0,0,1-1.011.578c-.262-.081-.144-.488.108-.406Z" transform="translate(-120.081 -185.765)" fill="#ff8a65"/>
            </g>
          </g>
          <path id="Tracé_920" data-name="Tracé 920" d="M115.885,289.192a27.327,27.327,0,0,0,13.788-2.33,27.146,27.146,0,0,0,13.743-14.249c.135-.325.614-.072.488.253a27.864,27.864,0,0,1-7.693,10.492,27.521,27.521,0,0,1-12.416,5.96,27.848,27.848,0,0,1-8.027.406c-.352-.036-.226-.569.126-.533Z" transform="translate(-73.327 -101.158)" fill="#013025"/>
          <path id="Tracé_921" data-name="Tracé 921" d="M125.536,217.432a11.405,11.405,0,0,0,10.781-2.6c.253-.244.659.126.406.37a11.948,11.948,0,0,1-11.305,2.763c-.334-.1-.217-.632.126-.533Z" transform="translate(-74.264 -95.558)" fill="#013025"/>
          <path id="Tracé_922" data-name="Tracé 922" d="M121.69,195.517a3.809,3.809,0,0,0,1.02-1.68c.063-.343.6-.226.533.126-.2,1.174-1.345,1.788-1.743,2.853a1.672,1.672,0,0,0,2.122,2.167.276.276,0,0,1,.172.524,2.238,2.238,0,0,1-2.935-2.2,3.107,3.107,0,0,1,.831-1.779Z" transform="translate(-73.841 -93.509)" fill="#ff8a65"/>
          <path id="Tracé_923" data-name="Tracé 923" d="M127.948,201.917a4.6,4.6,0,0,1-4.479,1.707c-.361-.072-.542.479-.181.551a5.208,5.208,0,0,0,5.147-1.941c.226-.3-.262-.614-.488-.316Z" transform="translate(-74.058 -94.301)" fill="#013025"/>
          <g id="Groupe_471" data-name="Groupe 471" transform="translate(3.776)">
            <path id="Tracé_924" data-name="Tracé 924" d="M115.121,82.75l13.03,26.4,29.13,4.226L136.2,133.93l4.975,29-26.051-13.689L89.07,162.934l4.975-29L72.97,113.379l29.121-4.226Z" transform="translate(-72.97 -82.75)" fill="#f5b01a"/>
            <path id="Tracé_925" data-name="Tracé 925" d="M84.609,114.8,72.97,116.488,94.045,137.03,89.07,166.042l26.051-13.7,26.051,13.7-4.226-24.624c-20.272-.867-40.408-10.339-52.345-26.629Z" transform="translate(-72.97 -85.859)" fill="#960"/>
          </g>
          <g id="Groupe_473" data-name="Groupe 473" transform="translate(0 68.674)">
            <g id="Groupe_472" data-name="Groupe 472" transform="translate(16.063)">
              <path id="Tracé_926" data-name="Tracé 926" d="M98.525,158.836a2.678,2.678,0,0,1,1.038.036.977.977,0,0,1,.7.7,1.015,1.015,0,0,1-.6,1,3.946,3.946,0,0,1-1.219.289,8.486,8.486,0,0,0-3.919,1.671,15.663,15.663,0,0,1-1.761,1.345c-2.23,1.255-3.973-1.156-1.652-2.582a18.2,18.2,0,0,1,7.422-2.465Z" transform="translate(-86.911 -158.804)" fill="#ffab91"/>
              <path id="Tracé_927" data-name="Tracé 927" d="M100,161.226a2.678,2.678,0,0,1,1.038.036.977.977,0,0,1,.7.7,1.015,1.015,0,0,1-.6,1,3.946,3.946,0,0,1-1.219.289A8.486,8.486,0,0,0,96,164.929a15.661,15.661,0,0,1-1.761,1.345c-2.23,1.255-3.973-1.156-1.652-2.582A18.2,18.2,0,0,1,100,161.227Z" transform="translate(-87.054 -159.036)" fill="#ffab91"/>
              <path id="Tracé_928" data-name="Tracé 928" d="M99.555,163.916a2.678,2.678,0,0,1,1.038.036.977.977,0,0,1,.7.7,1.015,1.015,0,0,1-.6,1,3.946,3.946,0,0,1-1.219.289,8.486,8.486,0,0,0-3.919,1.67,15.661,15.661,0,0,1-1.761,1.345c-2.23,1.255-3.973-1.156-1.652-2.582a18.2,18.2,0,0,1,7.422-2.465Z" transform="translate(-87.011 -159.297)" fill="#ffab91"/>
              <path id="Tracé_929" data-name="Tracé 929" d="M98.433,166.667a2.066,2.066,0,0,1,.849.027.8.8,0,0,1,.578.569.825.825,0,0,1-.5.822,3.394,3.394,0,0,1-.993.235,6.907,6.907,0,0,0-3.206,1.363,12.889,12.889,0,0,1-1.436,1.1c-1.824,1.02-3.251-.939-1.345-2.113a14.906,14.906,0,0,1,6.059-2.014Z" transform="translate(-87.053 -159.564)" fill="#ffab91"/>
              <path id="Tracé_930" data-name="Tracé 930" d="M90.49,161.722a12.718,12.718,0,0,0-2.736,3.079,6.131,6.131,0,0,0-1.075,4.56,3.771,3.771,0,0,0,3.278,3.043,4.142,4.142,0,0,0,2.646-.939,6.487,6.487,0,0,0,.117-10.285l-2.239.533Z" transform="translate(-86.577 -159.034)" fill="#ffab91"/>
            </g>
            <path id="Tracé_931" data-name="Tracé 931" d="M86.533,166.64c-3.612,4.352-17.662,26.349-17.743,31.92a10.454,10.454,0,0,0,3.2,8.009c2.492,2.2,5.445,1.643,7.088-1.219,2.971-5.183,8.867-28.109,10.276-35.143l-2.808-3.567Z" transform="translate(-68.788 -159.564)" fill="#ffab91"/>
          </g>
          <g id="Groupe_475" data-name="Groupe 475" transform="translate(61.438 66.525)">
            <g id="Groupe_474" data-name="Groupe 474">
              <path id="Tracé_932" data-name="Tracé 932" d="M140.052,156.456a2.678,2.678,0,0,0-1.038.036.977.977,0,0,0-.7.7,1.015,1.015,0,0,0,.6,1,3.946,3.946,0,0,0,1.219.289,8.486,8.486,0,0,1,3.919,1.67,15.66,15.66,0,0,0,1.761,1.345c2.23,1.255,3.973-1.156,1.652-2.582a18.2,18.2,0,0,0-7.422-2.465Z" transform="translate(-136.971 -156.424)" fill="#ffab91"/>
              <path id="Tracé_933" data-name="Tracé 933" d="M138.582,158.846a2.678,2.678,0,0,0-1.038.036.977.977,0,0,0-.7.7,1.015,1.015,0,0,0,.6,1,3.946,3.946,0,0,0,1.219.289,8.486,8.486,0,0,1,3.919,1.671,15.664,15.664,0,0,0,1.761,1.345c2.23,1.255,3.973-1.156,1.652-2.582a18.2,18.2,0,0,0-7.422-2.465Z" transform="translate(-136.828 -156.656)" fill="#ffab91"/>
              <path id="Tracé_934" data-name="Tracé 934" d="M139.022,161.536a2.678,2.678,0,0,0-1.038.036.977.977,0,0,0-.7.7,1.015,1.015,0,0,0,.6,1,3.945,3.945,0,0,0,1.219.289,8.486,8.486,0,0,1,3.919,1.671,15.664,15.664,0,0,0,1.761,1.345c2.23,1.255,3.973-1.156,1.652-2.582a18.2,18.2,0,0,0-7.422-2.465Z" transform="translate(-136.871 -156.917)" fill="#ffab91"/>
              <path id="Tracé_935" data-name="Tracé 935" d="M140.346,164.287a2.234,2.234,0,0,0-.849.027.8.8,0,0,0-.578.569.825.825,0,0,0,.5.822,3.394,3.394,0,0,0,.993.235,6.836,6.836,0,0,1,3.2,1.363,12.888,12.888,0,0,0,1.436,1.1c1.824,1.02,3.251-.939,1.345-2.113a14.906,14.906,0,0,0-6.059-2.014Z" transform="translate(-137.03 -157.184)" fill="#ffab91"/>
              <path id="Tracé_936" data-name="Tracé 936" d="M148.264,159.342A12.716,12.716,0,0,1,151,162.421a6.131,6.131,0,0,1,1.075,4.56,3.771,3.771,0,0,1-3.278,3.043,4.142,4.142,0,0,1-2.646-.939,6.487,6.487,0,0,1-.117-10.285l2.239.533Z" transform="translate(-137.481 -156.654)" fill="#ffab91"/>
            </g>
            <path id="Tracé_937" data-name="Tracé 937" d="M150.937,164.26c3.612,4.352,17.662,26.349,17.743,31.92a10.454,10.454,0,0,1-3.2,8.009c-2.492,2.2-5.445,1.643-7.088-1.219-2.971-5.183-8.867-28.109-10.276-35.143l2.808-3.567Z" transform="translate(-137.924 -157.184)" fill="#ffab91"/>
          </g>
          <path id="Tracé_938" data-name="Tracé 938" d="M163.164,217.96q-5.309,6.271-10.619,12.551c-1.011,1.2-2.032,2.393-3.043,3.594-.235.28.154.713.388.424q5.309-6.271,10.619-12.551l3.043-3.594C163.787,218.1,163.4,217.671,163.164,217.96Z" transform="translate(-76.613 -95.861)" fill="#013025"/>
          <path id="Tracé_939" data-name="Tracé 939" d="M107.342,220.452q-.474,7.341-.777,14.7-.3,7.382-.424,14.782-.068,4.145-.081,8.3c0,.37.578.4.578.027q.027-7.355.226-14.718.2-7.4.578-14.782c.144-2.763.3-5.526.479-8.28a.289.289,0,0,0-.578-.027Z" transform="translate(-72.405 -96.086)" fill="#013025"/>
          <g id="Groupe_476" data-name="Groupe 476" transform="translate(43.028 97.34)">
            <path id="Tracé_940" data-name="Tracé 940" d="M119.284,196.239a2.844,2.844,0,1,1,2.844-2.844A2.844,2.844,0,0,1,119.284,196.239Zm0-5.4a2.555,2.555,0,1,0,2.555,2.555A2.559,2.559,0,0,0,119.284,190.839Z" transform="translate(-116.44 -190.55)" fill="#013025"/>
            <path id="Tracé_941" data-name="Tracé 941" d="M126.994,196.239a2.844,2.844,0,1,1,2.844-2.844,2.844,2.844,0,0,1-2.844,2.844Zm0-5.4a2.555,2.555,0,1,0,2.555,2.555A2.559,2.559,0,0,0,126.994,190.839Z" transform="translate(-117.188 -190.55)" fill="#013025"/>
            <path id="Tracé_942" data-name="Tracé 942" d="M122.6,192.656l-.2-.208a1.487,1.487,0,0,1,1.9-.081l-.181.226a1.2,1.2,0,0,0-1.517.063Z" transform="translate(-117.018 -190.697)" fill="#013025"/>
            <path id="Tracé_943" data-name="Tracé 943" d="M135.805,193.591a11.2,11.2,0,0,0-5.58-.6l-.045-.289a11.349,11.349,0,0,1,5.725.623Z" transform="translate(-117.773 -190.746)" fill="#013025"/>
          </g>
        </g>
        <rect id="Rectangle_156" data-name="Rectangle 156" width="337.34" height="2.167" transform="translate(23.531 388.8)" fill="#01614d"/>
      </g>
    </g>
  </g>
</svg>
